<svg width="24" height="24" viewBox="0 0 24 24" fill="none" xmlns="http://www.w3.org/2000/svg">
<path fill-rule="evenodd" clip-rule="evenodd" d="M18 4V3C18 2.44772 17.5523 2 17 2C16.4477 2 16 2.44772 16 3V4H8V3C8 2.44772 7.55228 2 7 2C6.44772 2 6 2.44772 6 3V4H5C3.89 4 3.01 4.9 3.01 6L3 20C3 21.1 3.89 22 5 22H19C20.1 22 21 21.1 21 20V6C21 4.9 20.1 4 19 4H18ZM5 20V9H19V20H5ZM7 12C7 11.4477 7.44772 11 8 11H11C11.5523 11 12 11.4477 12 12V15C12 15.5523 11.5523 16 11 16H8C7.44772 16 7 15.5523 7 15V12Z" fill="url(#paint0_linear)"/>
<mask id="mask0" mask-type="alpha" maskUnits="userSpaceOnUse" x="3" y="2" width="18" height="20">
<path fill-rule="evenodd" clip-rule="evenodd" d="M18 4V3C18 2.44772 17.5523 2 17 2C16.4477 2 16 2.44772 16 3V4H8V3C8 2.44772 7.55228 2 7 2C6.44772 2 6 2.44772 6 3V4H5C3.89 4 3.01 4.9 3.01 6L3 20C3 21.1 3.89 22 5 22H19C20.1 22 21 21.1 21 20V6C21 4.9 20.1 4 19 4H18ZM5 20V9H19V20H5ZM7 12C7 11.4477 7.44772 11 8 11H11C11.5523 11 12 11.4477 12 12V15C12 15.5523 11.5523 16 11 16H8C7.44772 16 7 15.5523 7 15V12Z" fill="white"/>
</mask>
<g mask="url(#mask0)">
<rect width="24" height="24" fill="url(#paint1_linear)"/>
</g>
<defs>
<linearGradient id="paint0_linear" x1="3" y1="12" x2="21" y2="12" gradientUnits="userSpaceOnUse">
<stop stop-color="#8D8D8D"/>
<stop offset="1" stop-color="#B7B7B7"/>
</linearGradient>
<linearGradient id="paint1_linear" x1="0" y1="12" x2="24" y2="12" gradientUnits="userSpaceOnUse">
<stop stop-color="#8D8D8D"/>
<stop offset="1" stop-color="#B7B7B7"/>
</linearGradient>
</defs>
</svg>
