<svg width="202" height="27" viewBox="0 0 202 27" fill="none" xmlns="http://www.w3.org/2000/svg">
<path d="M65.804 23.0348V11.3718L60.307 23.0348H56.4688L50.9687 11.3718V23.0348H46.967V6.42871H52.4005L58.3848 18.9968L64.3692 6.42871H69.7815V23.0348H65.804Z" fill="#7A7A7A"/>
<path d="M93.5946 14.7438C93.5946 16.1695 93.3615 17.4287 92.8924 18.5215C92.4262 19.6142 91.7572 20.5254 90.8855 21.2579C90.0167 21.9904 88.9603 22.5444 87.7192 22.9197C86.4782 23.2951 85.0857 23.4827 83.542 23.4827C81.9952 23.4827 80.5997 23.2951 79.3526 22.9197C78.1055 22.5444 77.043 21.9904 76.1652 21.2579C75.2874 20.5254 74.6124 19.6112 74.1371 18.5215C73.6619 17.4287 73.4258 16.1695 73.4258 14.7438C73.4258 13.3181 73.6619 12.0589 74.1371 10.9661C74.6124 9.87338 75.2874 8.96225 76.1652 8.22972C77.043 7.49719 78.1055 6.94325 79.3526 6.5679C80.5997 6.19256 81.9952 6.00488 83.542 6.00488C85.0888 6.00488 86.4812 6.19256 87.7192 6.5679C88.9603 6.94325 90.0137 7.49719 90.8855 8.22972C91.7542 8.96225 92.4232 9.8764 92.8924 10.9661C93.3615 12.0589 93.5946 13.3181 93.5946 14.7438ZM89.5506 14.7438C89.5506 14.1233 89.4628 13.5058 89.2872 12.8883C89.1116 12.2708 88.7968 11.7168 88.3488 11.2264C87.9008 10.7361 87.2864 10.3365 86.5115 10.0308C85.7365 9.72505 84.7467 9.57068 83.545 9.57068C82.7398 9.57068 82.0315 9.6403 81.4201 9.78257C80.8086 9.92484 80.2789 10.1186 79.8339 10.3698C79.3889 10.621 79.0136 10.9116 78.7139 11.2446C78.4112 11.5776 78.1721 11.9378 77.9905 12.3192C77.8119 12.7006 77.6817 13.1001 77.6061 13.5148C77.5304 13.9295 77.4941 14.3382 77.4941 14.7408C77.4941 15.1524 77.5304 15.5671 77.6061 15.9849C77.6817 16.4026 77.8089 16.8052 77.9905 17.1866C78.1691 17.568 78.4112 17.9252 78.7139 18.2551C79.0166 18.5851 79.3889 18.8726 79.8339 19.1178C80.2789 19.363 80.8086 19.5567 81.4201 19.699C82.0315 19.8413 82.7398 19.9109 83.545 19.9109C84.7467 19.9109 85.7335 19.7565 86.5115 19.4508C87.2864 19.1451 87.9008 18.7455 88.3488 18.2551C88.7968 17.7647 89.1116 17.2108 89.2872 16.5933C89.4628 15.9818 89.5506 15.3643 89.5506 14.7438Z" fill="#7A7A7A"/>
<path d="M115.386 14.7196C115.386 15.7821 115.283 16.7265 115.074 17.5529C114.865 18.3793 114.572 19.0967 114.196 19.7111C113.818 20.3226 113.367 20.8432 112.837 21.27C112.308 21.6968 111.72 22.0389 111.076 22.2962C110.431 22.5535 109.732 22.7412 108.984 22.8592C108.236 22.9773 107.455 23.0348 106.644 23.0348H97.2422V6.42871H106.623C107.434 6.42871 108.215 6.48622 108.963 6.60428C109.71 6.72233 110.41 6.91 111.06 7.1673C111.711 7.42459 112.301 7.76664 112.834 8.18739C113.367 8.61117 113.821 9.12879 114.199 9.74629C114.578 10.3638 114.868 11.0812 115.077 11.9045C115.283 12.7249 115.386 13.6662 115.386 14.7196ZM111.354 14.7196C111.354 13.9205 111.263 13.2304 111.079 12.6401C110.894 12.0529 110.6 11.5655 110.195 11.1841C109.789 10.8027 109.259 10.5151 108.606 10.3275C107.952 10.1368 107.153 10.0429 106.211 10.0429H101.241V19.4206H106.211C107.153 19.4206 107.952 19.3267 108.606 19.136C109.259 18.9453 109.789 18.6578 110.195 18.2673C110.6 17.8768 110.897 17.3864 111.079 16.7992C111.263 16.2119 111.354 15.5188 111.354 14.7196Z" fill="#7A7A7A"/>
<path d="M119.031 23.0348V6.42871H134.029V9.97029H123.138V12.7127H133.47V16.2543H123.138V19.4932H134.181V23.0348H119.031Z" fill="#7A7A7A"/>
<path d="M138.043 23.0348V6.42871H142.045V19.3963H152.86V23.0348H138.043Z" fill="#7A7A7A"/>
<path d="M156.062 23.0348V6.42871H160.064V23.0348H156.062Z" fill="#7A7A7A"/>
<path d="M181.638 19.7838C181.272 20.5163 180.721 21.158 179.988 21.7059C179.256 22.2538 178.339 22.6867 177.243 23.0045C176.147 23.3223 174.864 23.4828 173.398 23.4828C171.933 23.4828 170.647 23.3223 169.542 23.0045C168.437 22.6867 167.52 22.2538 166.788 21.7059C166.055 21.158 165.504 20.5163 165.138 19.7838C164.772 19.0513 164.587 18.2703 164.587 17.4379V6.42871H168.576V15.8305C168.576 16.3875 168.64 16.9112 168.764 17.4076C168.888 17.904 169.127 18.3369 169.476 18.7062C169.824 19.0755 170.314 19.3721 170.941 19.587C171.57 19.805 172.387 19.914 173.392 19.914C174.391 19.914 175.203 19.805 175.829 19.587C176.456 19.3691 176.94 19.0755 177.291 18.7062C177.639 18.3369 177.875 17.904 177.996 17.4076C178.118 16.9112 178.181 16.3875 178.181 15.8305V6.42871H182.183V17.4379C182.189 18.2703 182.007 19.0513 181.638 19.7838Z" fill="#7A7A7A"/>
<path d="M200.369 11.1055C200.087 10.9511 199.718 10.7785 199.258 10.5848C198.798 10.3911 198.277 10.2095 197.693 10.0339C197.112 9.86137 196.479 9.71607 195.795 9.59802C195.111 9.47996 194.412 9.42245 193.691 9.42245C193.116 9.42245 192.626 9.44364 192.22 9.48299C191.814 9.52234 191.472 9.57683 191.197 9.6404C190.921 9.70396 190.701 9.77964 190.54 9.86439C190.38 9.94915 190.256 10.0369 190.168 10.1247C190.08 10.2125 190.025 10.3033 190.001 10.3911C189.977 10.4789 189.965 10.5606 189.965 10.6332C189.965 10.8754 190.074 11.0873 190.289 11.2689C190.504 11.4505 190.8 11.611 191.173 11.7532C191.545 11.8955 191.981 12.0257 192.477 12.1528C192.974 12.2769 193.5 12.4071 194.057 12.5403C194.614 12.6734 195.19 12.8187 195.783 12.9761C196.376 13.1335 196.951 13.3182 197.508 13.5271C198.065 13.7359 198.592 13.9811 199.088 14.2596C199.585 14.5381 200.021 14.862 200.393 15.2312C200.765 15.6005 201.062 16.0304 201.277 16.5117C201.492 16.996 201.601 17.5469 201.601 18.1674C201.601 18.9666 201.474 19.6507 201.222 20.2228C200.971 20.7949 200.635 21.2792 200.214 21.6727C199.794 22.0662 199.306 22.384 198.752 22.6201C198.198 22.8593 197.617 23.0409 197.012 23.171C196.403 23.3012 195.789 23.386 195.168 23.4253C194.548 23.4647 193.955 23.4858 193.395 23.4858C191.929 23.4858 190.57 23.3496 189.323 23.0802C188.076 22.8108 186.974 22.4748 186.018 22.0722V18.1069C187.002 18.7183 188.125 19.1996 189.387 19.5447C190.649 19.8898 191.999 20.0654 193.437 20.0654C194.284 20.0654 194.978 20.0139 195.513 19.914C196.049 19.8141 196.467 19.684 196.77 19.5265C197.072 19.3691 197.275 19.1996 197.384 19.012C197.493 18.8273 197.545 18.6487 197.545 18.4792C197.545 18.2128 197.436 17.9828 197.221 17.783C197.006 17.5862 196.709 17.4137 196.337 17.2624C195.964 17.114 195.529 16.9778 195.032 16.8507C194.536 16.7236 194.009 16.6025 193.452 16.4753C192.895 16.3512 192.323 16.215 191.733 16.0697C191.142 15.9244 190.57 15.7549 190.013 15.5551C189.456 15.3584 188.93 15.1283 188.433 14.865C187.937 14.6016 187.501 14.2929 187.129 13.9357C186.753 13.5785 186.46 13.1608 186.245 12.6916C186.03 12.2194 185.921 11.6745 185.921 11.054C185.921 10.3215 186.036 9.68883 186.266 9.15608C186.496 8.62333 186.808 8.17231 187.198 7.79696C187.589 7.42161 188.043 7.11891 188.557 6.88583C189.072 6.65276 189.611 6.47114 190.18 6.34098C190.749 6.21384 191.324 6.12303 191.905 6.0746C192.486 6.02617 193.04 6.00195 193.567 6.00195C194.142 6.00195 194.732 6.03525 195.341 6.09882C195.949 6.16238 196.546 6.25319 197.136 6.37125C197.726 6.4893 198.295 6.62249 198.846 6.77686C199.397 6.93124 199.906 7.09167 200.372 7.26118V11.1055H200.369Z" fill="#7A7A7A"/>
<path d="M0 13.0733L8.62995 17.414V13.0219L0 8.68115V13.0733Z" fill="#8B8363"/>
<path d="M0 21.8032L8.62995 26.1439V21.7548L0 17.4141V21.8032Z" fill="#8B8363"/>
<path d="M17.2599 8.68141L0 0V4.38914L17.2599 13.0736L34.5198 4.38914V0L17.2599 8.68141Z" fill="#8B8363"/>
<path d="M25.8899 17.414L34.5198 13.0733V8.68115L25.8899 13.0219V17.414Z" fill="#8B8363"/>
<path d="M25.8899 26.1439L34.5198 21.8032V17.4141L25.8899 21.7548V26.1439Z" fill="#8B8363"/>
</svg>
