<svg width="205" height="27" viewBox="0 0 205 27" fill="none" xmlns="http://www.w3.org/2000/svg">
<path d="M66.9134 23.4242V11.5645L61.3237 23.4242H57.4207L51.8279 11.5645V23.4242H47.7588V6.53809H53.2839L59.3691 19.3181L65.4544 6.53809H70.9579V23.4242H66.9134Z" fill="url(#paint0_linear)"/>
<path d="M95.1727 14.9932C95.1727 16.443 94.9357 17.7234 94.4586 18.8346C93.9846 19.9458 93.3044 20.8723 92.4179 21.6171C91.5345 22.362 90.4603 22.9253 89.1983 23.307C87.9363 23.6887 86.5204 23.8795 84.9506 23.8795C83.3777 23.8795 81.9587 23.6887 80.6906 23.307C79.4225 22.9253 78.3421 22.362 77.4494 21.6171C76.5568 20.8723 75.8704 19.9427 75.3872 18.8346C74.9039 17.7234 74.6638 16.443 74.6638 14.9932C74.6638 13.5435 74.9039 12.263 75.3872 11.1518C75.8704 10.0407 76.5568 9.11417 77.4494 8.36929C78.3421 7.6244 79.4225 7.06112 80.6906 6.67945C81.9587 6.29777 83.3777 6.10693 84.9506 6.10693C86.5235 6.10693 87.9394 6.29777 89.1983 6.67945C90.4603 7.06112 91.5314 7.6244 92.4179 8.36929C93.3013 9.11417 93.9815 10.0437 94.4586 11.1518C94.9357 12.263 95.1727 13.5435 95.1727 14.9932ZM91.0605 14.9932C91.0605 14.3622 90.9712 13.7343 90.7927 13.1064C90.6142 12.4785 90.2941 11.9152 89.8385 11.4165C89.383 10.9179 88.7581 10.5116 87.9701 10.2007C87.1822 9.88983 86.1757 9.73286 84.9537 9.73286C84.1349 9.73286 83.4147 9.80365 82.7929 9.94832C82.1711 10.093 81.6325 10.29 81.18 10.5455C80.7275 10.8009 80.3459 11.0964 80.0411 11.435C79.7333 11.7736 79.4902 12.1399 79.3055 12.5277C79.1239 12.9155 78.9915 13.3218 78.9146 13.7435C78.8376 14.1652 78.8007 14.5808 78.8007 14.9901C78.8007 15.4087 78.8376 15.8304 78.9146 16.2552C78.9915 16.68 79.1208 17.0894 79.3055 17.4772C79.4871 17.865 79.7333 18.2282 80.0411 18.5637C80.3489 18.8992 80.7275 19.1916 81.18 19.441C81.6325 19.6903 82.1711 19.8873 82.7929 20.0319C83.4147 20.1766 84.1349 20.2474 84.9537 20.2474C86.1757 20.2474 87.1791 20.0904 87.9701 19.7796C88.7581 19.4687 89.383 19.0624 89.8385 18.5637C90.2941 18.0651 90.6142 17.5018 90.7927 16.8739C90.9712 16.2521 91.0605 15.6242 91.0605 14.9932Z" fill="url(#paint1_linear)"/>
<path d="M117.332 14.9688C117.332 16.0492 117.227 17.0096 117.015 17.8499C116.802 18.6902 116.504 19.4197 116.122 20.0445C115.737 20.6663 115.279 21.1957 114.74 21.6297C114.201 22.0637 113.604 22.4115 112.948 22.6731C112.293 22.9348 111.582 23.1256 110.822 23.2456C110.061 23.3657 109.267 23.4242 108.442 23.4242H98.8818V6.53809H108.421C109.246 6.53809 110.04 6.59657 110.8 6.71661C111.56 6.83665 112.271 7.02749 112.933 7.28913C113.595 7.55076 114.195 7.89858 114.737 8.32642C115.279 8.75735 115.74 9.28369 116.125 9.91161C116.51 10.5395 116.805 11.269 117.018 12.1062C117.227 12.9404 117.332 13.8977 117.332 14.9688ZM113.232 14.9688C113.232 14.1562 113.139 13.4544 112.952 12.8542C112.764 12.2571 112.465 11.7615 112.053 11.3737C111.64 10.9858 111.102 10.6934 110.437 10.5026C109.772 10.3087 108.959 10.2133 108.002 10.2133H102.948V19.749H108.002C108.959 19.749 109.772 19.6536 110.437 19.4597C111.102 19.2657 111.64 18.9733 112.053 18.5763C112.465 18.1792 112.767 17.6806 112.952 17.0834C113.139 16.4863 113.232 15.7814 113.232 14.9688Z" fill="url(#paint2_linear)"/>
<path d="M121.038 23.4242V6.53809H136.289V10.1394H125.214V12.9281H135.72V16.5294H125.214V19.8229H136.443V23.4242H121.038Z" fill="url(#paint3_linear)"/>
<path d="M140.371 23.4242V6.53809H144.44V19.7244H155.438V23.4242H140.371Z" fill="url(#paint4_linear)"/>
<path d="M158.694 23.4242V6.53809H162.763V23.4242H158.694Z" fill="url(#paint5_linear)"/>
<path d="M184.7 20.1184C184.328 20.8632 183.768 21.5158 183.023 22.0729C182.278 22.63 181.345 23.0702 180.231 23.3934C179.117 23.7166 177.812 23.8797 176.322 23.8797C174.832 23.8797 173.524 23.7166 172.401 23.3934C171.277 23.0702 170.344 22.63 169.6 22.0729C168.855 21.5158 168.294 20.8632 167.922 20.1184C167.55 19.3735 167.362 18.5793 167.362 17.7329V6.53809H171.419V16.0985C171.419 16.6648 171.483 17.1973 171.61 17.7021C171.736 18.2069 171.979 18.6471 172.333 19.0226C172.687 19.3981 173.185 19.6998 173.823 19.9183C174.463 20.1399 175.294 20.2507 176.316 20.2507C177.332 20.2507 178.156 20.1399 178.794 19.9183C179.431 19.6967 179.923 19.3981 180.28 19.0226C180.634 18.6471 180.874 18.2069 180.998 17.7021C181.121 17.1973 181.185 16.6648 181.185 16.0985V6.53809H185.254V17.7329C185.261 18.5793 185.076 19.3735 184.7 20.1184Z" fill="url(#paint6_linear)"/>
<path d="M203.747 11.2936C203.461 11.1366 203.086 10.9611 202.618 10.7641C202.15 10.5672 201.62 10.3825 201.026 10.2039C200.435 10.0285 199.792 9.88075 199.096 9.76071C198.401 9.64066 197.69 9.58218 196.957 9.58218C196.372 9.58218 195.874 9.60373 195.461 9.64374C195.049 9.68375 194.701 9.73916 194.421 9.8038C194.141 9.86844 193.916 9.94539 193.753 10.0316C193.59 10.1178 193.464 10.207 193.374 10.2963C193.285 10.3855 193.23 10.4779 193.205 10.5672C193.18 10.6564 193.168 10.7395 193.168 10.8134C193.168 11.0596 193.279 11.2751 193.498 11.4598C193.716 11.6445 194.018 11.8076 194.396 11.9523C194.775 12.0969 195.218 12.2293 195.723 12.3586C196.228 12.4848 196.763 12.6171 197.33 12.7526C197.896 12.888 198.481 13.0357 199.084 13.1958C199.687 13.3558 200.272 13.5436 200.839 13.756C201.405 13.9684 201.941 14.2177 202.445 14.5009C202.95 14.7841 203.393 15.1134 203.772 15.4889C204.151 15.8644 204.452 16.3015 204.671 16.7909C204.889 17.2834 205 17.8436 205 18.4746C205 19.2872 204.871 19.9828 204.615 20.5646C204.36 21.1463 204.018 21.6388 203.59 22.039C203.163 22.4391 202.667 22.7623 202.104 23.0024C201.54 23.2456 200.949 23.4302 200.334 23.5626C199.715 23.695 199.09 23.7811 198.459 23.8212C197.828 23.8612 197.225 23.8827 196.656 23.8827C195.166 23.8827 193.784 23.7442 192.516 23.4703C191.247 23.1963 190.127 22.8547 189.154 22.4453V18.4131C190.155 19.0348 191.297 19.5242 192.58 19.8751C193.864 20.226 195.237 20.4045 196.699 20.4045C197.56 20.4045 198.265 20.3522 198.81 20.2506C199.355 20.1491 199.78 20.0167 200.088 19.8567C200.395 19.6966 200.602 19.5242 200.712 19.3334C200.823 19.1456 200.876 18.964 200.876 18.7917C200.876 18.5208 200.765 18.2869 200.546 18.0837C200.328 17.8836 200.026 17.7082 199.647 17.5543C199.269 17.4035 198.826 17.2649 198.321 17.1357C197.816 17.0064 197.28 16.8833 196.714 16.754C196.148 16.6278 195.566 16.4893 194.966 16.3415C194.365 16.1938 193.784 16.0214 193.217 15.8183C192.651 15.6182 192.115 15.3843 191.611 15.1165C191.106 14.8487 190.663 14.5347 190.284 14.1715C189.902 13.8083 189.604 13.3835 189.385 12.9065C189.167 12.4263 189.056 11.8722 189.056 11.2412C189.056 10.4964 189.173 9.85305 189.407 9.31131C189.641 8.76958 189.958 8.31095 190.355 7.92928C190.752 7.5476 191.214 7.2398 191.737 7.00279C192.26 6.76578 192.808 6.5811 193.387 6.44874C193.965 6.31947 194.55 6.22713 195.141 6.17788C195.732 6.12863 196.295 6.104 196.831 6.104C197.416 6.104 198.016 6.13786 198.635 6.2025C199.253 6.26714 199.86 6.35948 200.46 6.47952C201.06 6.59957 201.639 6.735 202.199 6.89198C202.759 7.04896 203.276 7.2121 203.75 7.38447V11.2936H203.747Z" fill="url(#paint7_linear)"/>
<path d="M0 13.2939L8.77547 17.7078V13.2415L0 8.82764V13.2939Z" fill="#8B8363"/>
<path d="M0 22.1712L8.77547 26.5851V22.1219L0 17.708V22.1712Z" fill="#8B8363"/>
<path d="M17.5509 8.8278L0 0V4.46315L17.5509 13.294L35.1019 4.46315V0L17.5509 8.8278Z" fill="#8B8363"/>
<path d="M26.3264 17.7078L35.1019 13.2939V8.82764L26.3264 13.2415V17.7078Z" fill="#8B8363"/>
<path d="M26.3264 26.5851L35.1019 22.1712V17.708L26.3264 22.1219V26.5851Z" fill="#8B8363"/>
<defs>
<linearGradient id="paint0_linear" x1="47.7588" y1="14.9811" x2="70.9579" y2="14.9811" gradientUnits="userSpaceOnUse">
<stop stop-color="#32373D"/>
<stop offset="1" stop-color="#26292D"/>
</linearGradient>
<linearGradient id="paint1_linear" x1="74.6638" y1="14.9932" x2="95.1727" y2="14.9932" gradientUnits="userSpaceOnUse">
<stop stop-color="#32373D"/>
<stop offset="1" stop-color="#26292D"/>
</linearGradient>
<linearGradient id="paint2_linear" x1="98.8818" y1="14.9811" x2="117.332" y2="14.9811" gradientUnits="userSpaceOnUse">
<stop stop-color="#32373D"/>
<stop offset="1" stop-color="#26292D"/>
</linearGradient>
<linearGradient id="paint3_linear" x1="121.038" y1="14.9811" x2="136.443" y2="14.9811" gradientUnits="userSpaceOnUse">
<stop stop-color="#32373D"/>
<stop offset="1" stop-color="#26292D"/>
</linearGradient>
<linearGradient id="paint4_linear" x1="140.371" y1="14.9811" x2="155.438" y2="14.9811" gradientUnits="userSpaceOnUse">
<stop stop-color="#32373D"/>
<stop offset="1" stop-color="#26292D"/>
</linearGradient>
<linearGradient id="paint5_linear" x1="158.694" y1="14.9811" x2="162.763" y2="14.9811" gradientUnits="userSpaceOnUse">
<stop stop-color="#32373D"/>
<stop offset="1" stop-color="#26292D"/>
</linearGradient>
<linearGradient id="paint6_linear" x1="167.362" y1="15.2089" x2="185.255" y2="15.2089" gradientUnits="userSpaceOnUse">
<stop stop-color="#32373D"/>
<stop offset="1" stop-color="#26292D"/>
</linearGradient>
<linearGradient id="paint7_linear" x1="189.056" y1="14.9934" x2="205" y2="14.9934" gradientUnits="userSpaceOnUse">
<stop stop-color="#32373D"/>
<stop offset="1" stop-color="#26292D"/>
</linearGradient>
</defs>
</svg>
