<?xml version="1.0" standalone="no"?>
<!DOCTYPE svg PUBLIC "-//W3C//DTD SVG 20010904//EN"
 "http://www.w3.org/TR/2001/REC-SVG-20010904/DTD/svg10.dtd">
<svg version="1.0" xmlns="http://www.w3.org/2000/svg"
 width="1024.000000pt" height="1024.000000pt" viewBox="0 0 1024.000000 1024.000000"
 preserveAspectRatio="xMidYMid meet">
<metadata>
Created by potrace 1.11, written by Peter Selinger 2001-2013
</metadata>
<g transform="translate(0.000000,1024.000000) scale(0.100000,-0.100000)"
fill="#000000" stroke="none">
<path d="M3 8313 l0 -638 2555 -1277 c1404 -703 2559 -1278 2564 -1278 6 0
1160 575 2564 1277 l2554 1277 0 638 c0 351 -3 638 -7 638 -5 0 -1156 -574
-2560 -1276 l-2551 -1275 -2551 1275 c-1403 702 -2555 1276 -2560 1276 -4 0
-8 -287 -8 -637z"/>
<path d="M3 5767 c0 -348 3 -638 7 -645 7 -15 2540 -1283 2549 -1277 4 2 6
288 6 637 l0 633 -1281 642 -1281 641 0 -631z"/>
<path d="M8958 5759 l-1278 -639 0 -640 c0 -352 2 -640 5 -640 3 0 579 287
1280 637 l1275 638 0 642 c0 354 -1 643 -2 642 -2 0 -578 -288 -1280 -640z"/>
<path d="M3 3205 c0 -349 3 -639 6 -644 5 -7 2543 -1281 2553 -1281 9 0 2
1270 -7 1279 -8 8 -461 235 -2406 1207 l-146 73 0 -634z"/>
<path d="M8958 3199 l-1278 -639 0 -641 c0 -397 4 -639 9 -637 6 2 582 289
1280 638 l1271 635 0 643 c0 353 -1 642 -2 641 -2 0 -578 -288 -1280 -640z"/>
</g>
</svg>
