<svg width="46" height="53" viewBox="0 0 46 53" fill="none" xmlns="http://www.w3.org/2000/svg">
<path d="M43.4965 41.1883C45.0455 40.2956 46 38.6439 46 36.8561V16.1386C46 14.3505 45.0451 12.6985 43.4957 11.806L25.4957 1.43757C23.9509 0.547725 22.0491 0.547725 20.5043 1.43757L2.50432 11.806C0.954879 12.6985 0 14.3505 0 16.1386V36.8561C0 38.6439 0.954512 40.2956 2.50348 41.1883L20.5035 51.5613C22.0487 52.4518 23.9513 52.4518 25.4965 51.5613L43.4965 41.1883Z" fill="url(#paint0_linear)"/>
<g clip-path="url(#clip0)">
<path d="M5 13V17.5816L14.0036 22.1051V17.5236L5 13Z" fill="white"/>
<path d="M40.9998 13V17.5816L32.0034 22.1051V17.5236L40.9998 13Z" fill="white"/>
<path d="M23 45.7016L41 36.6472V32.0656L23 41.12V45.7016Z" fill="white"/>
<path d="M23 36.5892L41 27.5421V22.9605L23 32.0149V36.5892Z" fill="white"/>
<path d="M40.9998 22.9605V27.5421L32.0034 32.0657V27.4841L40.9998 22.9605Z" fill="white"/>
<path d="M40.9998 32.0656V36.6472L32.0034 41.1708V36.5892L40.9998 32.0656Z" fill="white"/>
<path d="M23 45.7016L5 36.6472V32.0656L23 41.12V45.7016Z" fill="white"/>
<path d="M23 36.5892L5 27.5421V22.9605L23 32.0149V36.5892Z" fill="white"/>
</g>
<defs>
<linearGradient id="paint0_linear" x1="0" y1="26.5001" x2="46" y2="26.5001" gradientUnits="userSpaceOnUse">
<stop stop-color="#B5AB86"/>
<stop offset="1" stop-color="#8B8363"/>
</linearGradient>
<clipPath id="clip0">
<rect width="36" height="32.7016" fill="white" transform="translate(5 13)"/>
</clipPath>
</defs>
</svg>
