<svg width="46" height="53" viewBox="0 0 46 53" fill="none" xmlns="http://www.w3.org/2000/svg">
<path d="M43.4965 41.1883C45.0455 40.2956 46 38.6439 46 36.8561V16.1386C46 14.3505 45.0451 12.6985 43.4957 11.806L25.4957 1.43757C23.9509 0.547725 22.0491 0.547725 20.5043 1.43757L2.50432 11.806C0.954879 12.6985 0 14.3505 0 16.1386V36.8561C0 38.6439 0.954512 40.2956 2.50348 41.1883L20.5035 51.5613C22.0487 52.4518 23.9513 52.4518 25.4965 51.5613L43.4965 41.1883Z" fill="url(#paint0_linear)"/>
<g clip-path="url(#clip0)">
<path d="M23 28.9825L5 19.8813V15.2761L23 24.3772V28.9825Z" fill="white"/>
<path d="M5 24.3772V28.9825L14.0036 33.5294V28.9315L5 24.3772Z" fill="white"/>
<path d="M5 33.5294V38.1346L14.0036 42.6816V38.0836L5 33.5294Z" fill="white"/>
<path d="M23 28.9825L41 19.8813V15.2761L23 24.3772V28.9825Z" fill="white"/>
<path d="M5 19.6991L23 10.6052V6L5 15.1012V19.6991Z" fill="white"/>
<path d="M23 47.2358L41 38.1346V33.5294L23 42.6306V47.2358Z" fill="white"/>
<path d="M18.9185 22.3078V45.2101L22.9998 47.2941V24.3918L18.9185 22.3078Z" fill="white"/>
<path d="M40.9998 33.5294V38.1346L32.0034 42.6816V38.0836L40.9998 33.5294Z" fill="white"/>
</g>
<defs>
<linearGradient id="paint0_linear" x1="0" y1="26.5001" x2="46" y2="26.5001" gradientUnits="userSpaceOnUse">
<stop stop-color="#B5AB86"/>
<stop offset="1" stop-color="#8B8363"/>
</linearGradient>
<clipPath id="clip0">
<rect width="36" height="41.2941" fill="white" transform="translate(5 6)"/>
</clipPath>
</defs>
</svg>
