<svg width="55" height="55" viewBox="0 0 55 55" fill="none" xmlns="http://www.w3.org/2000/svg">
<path d="M27.5 42.5391C28.093 42.5391 28.5742 42.0578 28.5742 41.4648C28.5742 40.8719 28.093 40.3906 27.5 40.3906C26.907 40.3906 26.4258 40.8719 26.4258 41.4648C26.4258 42.0578 26.907 42.5391 27.5 42.5391Z" fill="black"/>
<path d="M3.06346 30.8387C3.2566 30.9579 3.41086 31.2167 3.47607 31.5303L5.75878 42.5538C6.16065 44.4953 7.59752 46.0261 9.42659 46.5945L8.62598 49.7982C8.54573 50.1191 8.61782 50.4591 8.82138 50.7198C9.02505 50.9805 9.33733 51.1329 9.66808 51.1329H18.2618C18.5926 51.1329 18.905 50.9805 19.1085 50.7198C19.3122 50.4591 19.3842 50.1191 19.3039 49.7981L18.5634 46.8359H36.4367L35.6962 49.7981C35.6159 50.119 35.688 50.459 35.8916 50.7198C36.0951 50.9805 36.4075 51.1329 36.7383 51.1329H45.332C45.6628 51.1329 45.9751 50.9806 46.1787 50.7198C46.3824 50.4591 46.4544 50.1191 46.3741 49.7982L45.5732 46.5934C47.4051 46.0235 48.8398 44.4937 49.2412 42.554L51.5238 31.531C51.589 31.2168 51.7434 30.958 51.9365 30.8388C55.5981 28.5791 56.0455 23.4753 52.9091 20.6001C51.5616 19.3648 49.8107 18.7722 47.9794 18.9319C47.8959 18.9392 47.8126 18.949 47.7295 18.9597C46.8674 14.1641 43.3822 10.5986 38.0387 10.333C36.0327 6.38322 31.9691 3.86719 27.5 3.86719C23.0309 3.86719 18.9675 6.38269 16.9615 10.3326C11.14 10.6146 7.99423 14.6353 7.25452 18.9573C5.42105 18.7258 3.54385 19.2683 2.09097 20.6001C-1.04242 23.4724 -0.602421 28.5765 3.06346 30.8387ZM16.8859 48.9844H11.0436L11.5805 46.8359H16.3486L16.8859 48.9844ZM38.1141 48.9844L38.6513 46.8359H43.4194L43.9564 48.9844H38.1141ZM17.6196 12.4652C17.6293 12.4652 17.6392 12.4651 17.6493 12.4652C18.0764 12.4652 18.463 12.2123 18.6338 11.8206C20.1726 8.29426 23.6528 6.01563 27.5 6.01563C31.3472 6.01563 34.8274 8.29415 36.3661 11.8206C36.5369 12.2123 36.9234 12.4652 37.3506 12.4652C37.3592 12.4652 37.3704 12.4652 37.3802 12.4652C42.7727 12.4652 45.1694 16.1681 45.6651 19.6235C43.5367 20.7658 42.1094 23.1616 42.1094 25.7329V31.9126C40.7434 30.5168 38.8407 29.6484 36.7383 29.6484H18.2617C16.1593 29.6484 14.2566 30.5168 12.8906 31.9126V25.7329C12.8906 23.1574 11.4598 20.7594 9.32572 19.618C9.80902 16.1654 12.2009 12.4652 17.6196 12.4652ZM42.0013 36.0938H12.9987C13.4978 33.6452 15.6678 31.7969 18.2617 31.7969H36.7383C39.3321 31.7969 41.5022 33.6452 42.0013 36.0938ZM3.54267 22.1837C4.78597 21.0442 6.48861 20.8092 7.81301 21.288C9.53767 21.9132 10.7422 23.741 10.7422 25.7329V37.168C10.7422 37.7613 11.2232 38.2422 11.8164 38.2422H43.1836C43.7768 38.2422 44.2578 37.7613 44.2578 37.168V25.7329C44.2578 21.7169 48.6108 19.5744 51.4573 22.1837C53.5466 24.099 53.2534 27.5015 50.8082 29.0104C50.1017 29.4464 49.6088 30.1864 49.4202 31.0946L47.1375 42.1183C46.8261 43.6226 45.4883 44.6875 43.9816 44.6875H11.0183C9.50727 44.6875 8.17362 43.6216 7.86242 42.1182L5.5796 31.094C5.39108 30.1864 4.89822 29.4465 4.19171 29.0104C1.73959 27.4972 1.459 24.0939 3.54267 22.1837Z" fill="black"/>
<path d="M25.2215 15.8137C25.6411 16.2331 26.321 16.2331 26.7407 15.8137L27.5 15.0543L28.2593 15.8137C28.6787 16.2331 29.3587 16.2333 29.7785 15.8137C30.198 15.3942 30.198 14.714 29.7785 14.2945L29.0192 13.5351L29.7785 12.7758C30.198 12.3563 30.198 11.6761 29.7785 11.2566C29.3589 10.8371 28.679 10.8371 28.2593 11.2566L27.5 12.0159L26.7407 11.2565C26.3213 10.837 25.6413 10.837 25.2215 11.2565C24.802 11.676 24.802 12.3562 25.2215 12.7757L25.9808 13.535L25.2215 14.2944C24.802 14.714 24.802 15.3942 25.2215 15.8137Z" fill="black"/>
<path d="M33.8152 24.4074C34.2348 24.8269 34.9148 24.8269 35.3345 24.4074L36.0938 23.648L36.853 24.4074C37.2725 24.8269 37.9525 24.827 38.3723 24.4074C38.7918 23.9879 38.7918 23.3077 38.3723 22.8883L37.6129 22.1289L38.3723 21.3695C38.7918 20.95 38.7918 20.2698 38.3723 19.8504C37.9527 19.4309 37.2727 19.4309 36.853 19.8504L36.0938 20.6096L35.3345 19.8503C34.9151 19.4308 34.2351 19.4308 33.8152 19.8503C33.3958 20.2697 33.3958 20.9499 33.8152 21.3694L34.5746 22.1288L33.8152 22.8881C33.3958 23.3077 33.3958 23.9879 33.8152 24.4074Z" fill="black"/>
<path d="M16.6277 24.4074C17.0473 24.8269 17.7273 24.8269 18.147 24.4074L18.9062 23.648L19.6655 24.4074C20.085 24.8269 20.765 24.827 21.1848 24.4074C21.6043 23.9879 21.6043 23.3077 21.1848 22.8883L20.4254 22.1289L21.1848 21.3695C21.6043 20.95 21.6043 20.2698 21.1848 19.8504C20.7652 19.4309 20.0852 19.4309 19.6655 19.8504L18.9062 20.6096L18.147 19.8503C17.7275 19.4308 17.0475 19.4308 16.6277 19.8503C16.2082 20.2697 16.2082 20.9499 16.6277 21.3694L17.3871 22.1288L16.6277 22.8881C16.2082 23.3077 16.2082 23.9879 16.6277 24.4074Z" fill="black"/>
<path d="M31.7969 42.5391H43.1836C43.7768 42.5391 44.2578 42.0581 44.2578 41.4648C44.2578 40.8716 43.7768 40.3906 43.1836 40.3906H31.7969C31.2037 40.3906 30.7227 40.8716 30.7227 41.4648C30.7227 42.0581 31.2037 42.5391 31.7969 42.5391Z" fill="black"/>
</svg>
