<svg width="50" height="44" viewBox="0 0 50 44" fill="none" xmlns="http://www.w3.org/2000/svg">
<path d="M22.9767 10.0747C20.6875 10.0747 18.8252 12.0551 18.8252 14.4895V17.6057C18.8252 20.0398 20.6876 22.0203 22.9767 22.0203C25.2658 22.0203 27.1282 20.0399 27.1282 17.6057V14.4895C27.1282 12.0551 25.2658 10.0747 22.9767 10.0747ZM22.9767 20.4622C21.5767 20.4622 20.424 19.3172 20.3018 17.862C21.0248 18.5115 21.9582 18.9042 22.9767 18.9042C23.9951 18.9042 24.9285 18.5115 25.6516 17.8619C25.5294 19.3172 24.3767 20.4622 22.9767 20.4622ZM22.9767 17.346C21.4954 17.346 20.2904 16.0645 20.2904 14.4895C20.2904 12.9143 21.4955 11.6328 22.9767 11.6328C24.4579 11.6328 25.663 12.9143 25.663 14.4895C25.663 16.0645 24.4579 17.346 22.9767 17.346Z" fill="black"/>
<path d="M22.9758 12.672C22.5712 12.672 22.2432 13.0208 22.2432 13.4512V15.529C22.2432 15.9593 22.5712 16.3082 22.9758 16.3082C23.3804 16.3082 23.7084 15.9594 23.7084 15.529V13.4512C23.7084 13.0207 23.3804 12.672 22.9758 12.672Z" fill="black"/>
<path d="M36.1631 0.726562C32.5272 0.726562 29.5694 3.8718 29.5694 7.73782V10.8519C29.5694 10.8526 29.5693 10.8533 29.5693 10.854C29.5693 14.72 32.5273 17.8652 36.1629 17.8652C39.7945 17.8652 42.7495 14.7267 42.756 10.8665C42.756 10.8624 42.7566 10.8583 42.7566 10.8542V7.73782C42.7566 3.8718 39.7987 0.726562 36.1631 0.726562ZM36.1629 16.3073C33.8413 16.3073 31.8763 14.6578 31.2467 12.4035C32.4551 13.8419 34.2109 14.7494 36.1631 14.7494C38.1149 14.7494 39.8705 13.8422 41.0787 12.4043C40.449 14.6581 38.4842 16.3073 36.1629 16.3073ZM36.1631 13.1913C33.3353 13.1913 31.0347 10.7448 31.0347 7.73792C31.0347 4.73101 33.3354 2.28475 36.1631 2.28475C38.9908 2.28475 41.2913 4.73111 41.2913 7.73792C41.2913 10.7448 38.9908 13.1913 36.1631 13.1913Z" fill="black"/>
<path d="M36.1622 4.88123C35.7575 4.88123 35.4296 5.22984 35.4295 5.66007L35.4287 9.81545C35.4287 10.2456 35.7566 10.5945 36.1612 10.5946H36.1613C36.5659 10.5946 36.8938 10.2459 36.8939 9.81576L36.8947 5.66038C36.8948 5.23015 36.5668 4.88133 36.1622 4.88123Z" fill="black"/>
<path d="M49.5781 27.0887C48.5728 25.2379 46.343 24.5956 44.597 25.6493C44.2796 25.8157 40.2267 27.9337 36.8864 29.4283C36.5135 29.5952 36.3385 30.052 36.4953 30.4486C36.6521 30.8452 37.0816 31.0312 37.4548 30.8645C40.9566 29.2975 45.2231 27.0584 45.2658 27.0359C45.2798 27.0286 45.2936 27.0208 45.307 27.0126C46.3567 26.369 47.7036 26.7525 48.3095 27.8683C49.011 29.1585 47.9155 30.5752 47.3793 31.1538C43.7421 34.2738 33.677 42.2747 30.294 42.2747C26.5442 42.2747 16.0217 39.9042 13.4483 39.3113V26.5862C18.5507 25.789 21.2538 26.7889 26.9184 28.888C28.6416 29.5266 30.5938 30.2498 32.9667 31.0566C33.3204 31.2205 34.3018 31.8078 33.9277 33.1355C33.7004 33.9426 32.9675 34.7132 31.8941 34.4996C30.4519 34.2117 21.964 32.9875 21.6033 32.9356C21.2025 32.8774 20.8333 33.1766 20.779 33.603C20.7247 34.0294 21.0057 34.4218 21.4066 34.4796C21.4945 34.4922 30.218 35.7503 31.624 36.031C31.8423 36.0745 32.0541 36.0951 32.2589 36.0951C33.8143 36.0951 34.9581 34.908 35.3315 33.5826C35.7244 32.1879 35.3161 30.4223 33.5215 29.6144C33.5189 29.6132 33.5163 29.6119 33.5137 29.6108C33.5114 29.6097 33.5093 29.6086 33.5069 29.6076C33.4971 29.6032 33.487 29.6001 33.477 29.5961C33.4669 29.5922 33.4572 29.5876 33.4468 29.5841C31.0766 28.779 29.1237 28.0553 27.4007 27.4168C21.7517 25.3236 18.7746 24.2224 13.4484 25.0129V24.3616C13.4484 23.9313 13.1204 23.5826 12.7158 23.5826H10.5186V22.8039C10.5186 22.3736 10.1905 22.0249 9.78594 22.0249H0.732617C0.328027 22.0249 0 22.3736 0 22.8039V39.9374C0 40.3678 0.328027 40.7165 0.732617 40.7165C1.13721 40.7165 1.46523 40.3678 1.46523 39.9374V23.5829H9.05332V42.2747H7.58896V41.496C7.58896 41.0657 7.26094 40.717 6.85635 40.717C6.45176 40.717 6.12373 41.0657 6.12373 41.496V42.2747H0.732617C0.328027 42.2747 0 42.6234 0 43.0537C0 43.4841 0.328027 43.8328 0.732617 43.8328H9.78594C10.1905 43.8328 10.5186 43.4841 10.5186 43.0537V42.2355H12.7157C13.1203 42.2355 13.4483 41.8868 13.4483 41.4565V40.906C16.5136 41.6103 26.4897 43.8328 30.294 43.8328C32.2962 43.8328 35.8464 41.9358 41.1473 38.034C44.9702 35.2199 48.2979 32.3676 48.3311 32.3391C48.3514 32.3217 48.3707 32.3031 48.3891 32.2835C49.9808 30.5889 50.4252 28.6468 49.5781 27.0887ZM11.983 39.9255C11.983 39.9262 11.983 39.9269 11.983 39.9276V40.6776H10.5186V40.6775V25.1406H11.9831V39.9255H11.983Z" fill="black"/>
</svg>
