<svg width="58" height="58" viewBox="0 0 58 58" fill="none" xmlns="http://www.w3.org/2000/svg">
<path d="M22.8828 51.2031C22.585 51.2031 22.2925 51.3244 22.0819 51.535C21.8712 51.7456 21.75 52.0381 21.75 52.3359C21.75 52.6337 21.8712 52.9262 22.0819 53.1369C22.2925 53.3475 22.585 53.4688 22.8828 53.4688C23.1806 53.4688 23.4731 53.3475 23.6837 53.1369C23.8944 52.9262 24.0156 52.6337 24.0156 52.3359C24.0156 52.0381 23.8944 51.7456 23.6837 51.535C23.4731 51.3244 23.1806 51.2031 22.8828 51.2031Z" fill="#333333"/>
<path d="M56.7906 15.4425C55.1808 13.8327 52.5616 13.8327 50.9518 15.4425L45.7656 20.6287V3.85156C45.7656 1.72798 44.0376 0 41.9141 0H3.85156C1.72798 0 0 1.72798 0 3.85156V54.1484C0 56.272 1.72798 58 3.85156 58H41.9141C44.0376 58 45.7656 56.272 45.7656 54.1484V32.3068L56.7906 21.2814C58.4005 19.6716 58.4005 17.0524 56.7906 15.4425ZM43.5 3.85156V22.8943L41.2344 25.1599V5.66406C41.2344 5.03836 40.7273 4.53125 40.1016 4.53125H32.5308V2.26562H41.9141C42.7885 2.26562 43.5 2.97717 43.5 3.85156ZM37.3147 34.9185L38.844 31.4829L40.7503 33.3892L37.3147 34.9185ZM30.2651 2.26562V6.88184C30.2651 7.58453 29.6934 8.15625 28.9907 8.15625H16.7749C16.0722 8.15625 15.5005 7.58453 15.5005 6.88184V2.26562H30.2651ZM41.9141 55.7344H3.85156C2.97717 55.7344 2.26563 55.0228 2.26563 54.1484V3.85156C2.26563 2.97717 2.97717 2.26562 3.85156 2.26562H13.2349V4.53125H5.66406C5.03836 4.53125 4.53125 5.03836 4.53125 5.66406V52.3359C4.53125 52.9616 5.03836 53.4688 5.66406 53.4688H18.3516C18.9773 53.4688 19.4844 52.9616 19.4844 52.3359C19.4844 51.7102 18.9773 51.2031 18.3516 51.2031H6.79688V6.79688H13.2349V6.88184C13.2349 8.83372 14.823 10.4219 16.7749 10.4219H28.9907C30.9426 10.4219 32.5308 8.83372 32.5308 6.88184V6.79688H38.9688V27.4256L37.6784 28.7155C37.5806 28.8137 37.5014 28.9292 37.4448 29.0558L34.0446 36.6929C33.8538 37.1217 33.9468 37.6231 34.2782 37.955C34.4955 38.1718 34.7853 38.2868 35.0796 38.2868C35.2353 38.2868 35.392 38.255 35.5402 38.1891L38.9688 36.6624V51.2031H27.4141C26.7884 51.2031 26.2813 51.7102 26.2813 52.3359C26.2813 52.9616 26.7884 53.4688 27.4141 53.4688H40.1016C40.7268 53.4688 41.2344 52.9616 41.2344 52.3359V35.6535L43.1774 34.7884C43.2969 34.7353 43.4053 34.6614 43.5 34.5707V54.1484C43.5 55.0228 42.7885 55.7344 41.9141 55.7344ZM50.9664 23.9015L42.7168 32.1515L40.0817 29.5164L50.296 19.3021L52.9311 21.9372L50.9664 23.9015ZM55.1888 19.6795L54.533 20.3349L51.8983 17.7002L52.5537 17.0448C53.2802 16.3183 54.4622 16.3183 55.1888 17.0448C55.9149 17.771 55.9149 18.9529 55.1888 19.6795Z" fill="#333333"/>
<path d="M18.3516 13.5938H11.1016C10.4759 13.5938 9.96875 14.1009 9.96875 14.7266V21.9766C9.96875 22.6023 10.4759 23.1094 11.1016 23.1094H18.3516C18.9773 23.1094 19.4844 22.6023 19.4844 21.9766V14.7266C19.4844 14.1009 18.9773 13.5938 18.3516 13.5938ZM17.2188 20.8438H12.2344V15.8594H17.2188V20.8438Z" fill="#333333"/>
<path d="M18.3516 26.0547H11.1016C10.4759 26.0547 9.96875 26.5618 9.96875 27.1875V34.4375C9.96875 35.0632 10.4759 35.5703 11.1016 35.5703H18.3516C18.9773 35.5703 19.4844 35.0632 19.4844 34.4375V27.1875C19.4844 26.5618 18.9773 26.0547 18.3516 26.0547ZM17.2188 33.3047H12.2344V28.3203H17.2188V33.3047Z" fill="#333333"/>
<path d="M18.3516 38.5156H11.1016C10.4759 38.5156 9.96875 39.0227 9.96875 39.6484V46.8984C9.96875 47.5241 10.4759 48.0312 11.1016 48.0312H18.3516C18.9773 48.0312 19.4844 47.5241 19.4844 46.8984V39.6484C19.4844 39.0227 18.9773 38.5156 18.3516 38.5156ZM17.2188 45.7656H12.2344V40.7812H17.2188V45.7656Z" fill="#333333"/>
<path d="M26.4605 21.7097C26.6817 21.931 26.9715 22.0416 27.2614 22.0416C27.5512 22.0416 27.8411 21.931 28.0623 21.7097L33.1768 16.5953C33.6189 16.1532 33.6189 15.4359 33.1768 14.9934C32.7343 14.5509 32.017 14.5509 31.5745 14.9934L27.2614 19.3065L25.5423 17.5874C25.0998 17.1449 24.3829 17.1449 23.9399 17.5874C23.4979 18.0299 23.4979 18.7472 23.9399 19.1892L26.4605 21.7097Z" fill="#333333"/>
<path d="M26.4605 34.1707C26.6729 34.3831 26.9609 34.5025 27.2614 34.5025C27.5618 34.5025 27.8499 34.3831 28.0623 34.1707L33.1768 29.0566C33.6189 28.6141 33.6189 27.8968 33.1768 27.4543C32.7343 27.0123 32.017 27.0123 31.5745 27.4543L27.2614 31.7679L25.5423 30.0487C25.0998 29.6062 24.3829 29.6062 23.9399 30.0487C23.4979 30.4908 23.4979 31.2081 23.9399 31.6506L26.4605 34.1707Z" fill="#333333"/>
<path d="M28.5579 44.8757L30.3142 46.6316C30.5354 46.8528 30.8253 46.9635 31.1151 46.9635C31.4049 46.9635 31.6948 46.8528 31.916 46.6316C32.3585 46.1891 32.3585 45.4718 31.916 45.0297L30.1602 43.2734L31.916 41.5171C32.3585 41.0751 32.3585 40.3578 31.916 39.9153C31.4735 39.4727 30.7567 39.4727 30.3142 39.9153L28.5579 41.6711L26.802 39.9153C26.3595 39.4732 25.6427 39.4727 25.1997 39.9153C24.7576 40.3578 24.7576 41.0751 25.1997 41.5171L26.956 43.2734L25.1997 45.0297C24.7576 45.4718 24.7576 46.1891 25.1997 46.6316C25.421 46.8528 25.7112 46.9635 26.0011 46.9635C26.2909 46.9635 26.5808 46.8528 26.802 46.6316L28.5579 44.8757Z" fill="#333333"/>
</svg>
