<svg width="37" height="48" viewBox="0 0 37 48" fill="none" xmlns="http://www.w3.org/2000/svg">
<path d="M31.0416 31.7383H25.9143V28.8136C28.8808 26.6362 30.7971 23.2132 30.7971 19.3698V17.2692H32.0178C32.4224 17.2692 32.7503 16.9558 32.7503 16.5691C32.7503 15.8854 32.044 15.1376 30.7971 14.456V11.9018C30.7971 5.33908 25.2115 0 18.3457 0C11.4799 0 5.89441 5.33908 5.89441 11.9017V14.456C4.64754 15.1375 3.94129 15.8853 3.94129 16.569C3.94129 16.9557 4.26912 17.2691 4.67371 17.2691H5.89441V19.3698C5.89441 23.2132 7.81071 26.6361 10.7774 28.8136V31.7382H5.64998C2.5536 31.7382 0.034668 34.146 0.034668 37.1057C0.034668 37.1075 0.0349608 37.1092 0.0349608 37.1112V40.8395C0.0349608 41.226 0.362987 41.5396 0.76738 41.5396C1.1707 41.5396 1.4998 41.226 1.4998 40.8395V37.1056C1.4998 37.1044 1.4996 37.1033 1.4996 37.102C1.50165 34.9163 3.36268 33.1385 5.64998 33.1385H11.288L14.0331 34.8878C14.0436 34.8945 14.055 34.8993 14.0658 34.9053C14.0802 34.9137 14.0946 34.9218 14.1095 34.929C14.1302 34.9389 14.1512 34.9473 14.1725 34.9554C14.1865 34.9606 14.1999 34.9661 14.2143 34.9706C14.2385 34.9781 14.2629 34.9835 14.2875 34.9884C14.3001 34.9909 14.3124 34.9944 14.3252 34.9964C14.3606 35.0017 14.3961 35.0046 14.4316 35.0049C14.434 35.0049 14.4364 35.0055 14.4388 35.0055C14.4784 35.0055 14.5183 35.0012 14.5585 34.9949C14.5776 34.9919 14.5967 34.9892 14.6155 34.9848C14.6161 34.9847 14.6165 34.9846 14.6171 34.9845L18.3458 34.0935L22.0746 34.9845C22.0752 34.9846 22.0758 34.9847 22.0763 34.9848C22.0955 34.9894 22.1151 34.9921 22.1348 34.9951C22.1743 35.0013 22.2139 35.0055 22.2529 35.0055C22.2554 35.0055 22.2578 35.0049 22.2602 35.0049C22.2956 35.0046 22.3312 35.0017 22.3665 34.9964C22.3793 34.9944 22.3916 34.9909 22.4042 34.9884C22.4288 34.9834 22.4533 34.9781 22.4775 34.9706C22.4917 34.9661 22.5053 34.9606 22.5193 34.9554C22.5405 34.9473 22.5615 34.9389 22.5822 34.929C22.5972 34.9218 22.6116 34.9137 22.626 34.9053C22.6368 34.8993 22.6482 34.8945 22.6587 34.8878L25.4037 33.1385H31.0417C33.3302 33.1385 35.1922 34.9181 35.1922 37.1058V46.3925H30.7973V41.3985C30.7973 41.3753 30.7961 41.352 30.7937 41.3288C30.7927 41.3193 30.7908 41.3102 30.7894 41.3007C30.7876 41.2875 30.7858 41.2742 30.7832 41.2611C30.7809 41.2499 30.7776 41.2391 30.7748 41.2281C30.7719 41.2169 30.7692 41.2058 30.7657 41.1947C30.7623 41.1839 30.758 41.1733 30.754 41.1626C30.75 41.1517 30.7462 41.1408 30.7416 41.1301C30.7372 41.1201 30.732 41.1104 30.7272 41.1007C30.7219 41.0898 30.7168 41.0787 30.7107 41.0679C30.7055 41.0587 30.6997 41.05 30.694 41.0409C30.6875 41.0304 30.681 41.0196 30.6738 41.0092C30.6672 40.9995 30.6595 40.9904 30.6522 40.9811C30.6453 40.9721 30.6387 40.9629 30.6311 40.9541C30.6183 40.9392 30.6047 40.9251 30.5905 40.9112C30.5879 40.9086 30.5855 40.9056 30.5828 40.903L27.6531 38.1026C27.6506 38.1002 27.6476 38.098 27.645 38.0956C27.6304 38.0821 27.6153 38.0687 27.5995 38.0563C27.5909 38.0497 27.5819 38.0438 27.5731 38.0376C27.5628 38.0301 27.5525 38.0224 27.5418 38.0155C27.5316 38.0091 27.5212 38.0035 27.5109 37.9976C27.5008 37.9917 27.4907 37.9856 27.4803 37.9802C27.4701 37.975 27.4595 37.9706 27.4491 37.9659C27.4379 37.9607 27.4268 37.9555 27.4151 37.9508C27.4052 37.9469 27.3951 37.9438 27.3851 37.9404C27.3726 37.9361 27.3602 37.9315 27.3474 37.9278C27.3376 37.925 27.3277 37.9229 27.3178 37.9205C27.3045 37.9173 27.2914 37.9138 27.2778 37.9112C27.267 37.9092 27.256 37.908 27.2452 37.9064C27.2324 37.9045 27.2198 37.9023 27.2069 37.9011C27.1889 37.8994 27.1708 37.8989 27.1525 37.8985C27.1467 37.8984 27.141 37.8976 27.1352 37.8976H9.55651C9.55348 37.8976 9.55045 37.898 9.54743 37.8981C9.52643 37.8984 9.50543 37.8991 9.48444 37.9011C9.47233 37.9022 9.46051 37.9043 9.4485 37.906C9.43698 37.9077 9.42526 37.9089 9.41373 37.9112C9.40045 37.9137 9.38756 37.9171 9.37457 37.9203C9.36442 37.9228 9.35426 37.9249 9.3443 37.9278C9.33151 37.9315 9.31911 37.936 9.30661 37.9404C9.29664 37.9438 9.28649 37.9469 9.27662 37.9508C9.26471 37.9556 9.25338 37.961 9.24186 37.9663C9.2317 37.9709 9.22155 37.9752 9.21168 37.9801C9.20036 37.9859 9.18942 37.9926 9.17848 37.9988C9.16901 38.0043 9.15944 38.0094 9.15016 38.0153C9.13766 38.0233 9.12584 38.0321 9.11383 38.0408C9.1068 38.046 9.09938 38.0505 9.09254 38.056C9.0736 38.0709 9.05534 38.0866 9.03795 38.1032L6.10945 40.9026C6.09207 40.9192 6.07566 40.9365 6.06013 40.9547C6.05388 40.962 6.04851 40.9697 6.04256 40.9772C6.03406 40.9878 6.02537 40.9985 6.01755 41.0097C6.01091 41.0193 6.00506 41.0292 5.999 41.0391C5.99285 41.0487 5.9864 41.0583 5.98084 41.0684C5.97507 41.0786 5.97029 41.0892 5.96511 41.0998C5.96004 41.1098 5.95476 41.1199 5.95027 41.1303C5.94578 41.1407 5.94207 41.1515 5.93806 41.1621C5.93396 41.1729 5.92957 41.1838 5.92615 41.195C5.92273 41.2057 5.92019 41.2166 5.91736 41.2276C5.91433 41.2388 5.91111 41.2499 5.90867 41.2613C5.90603 41.274 5.90447 41.2868 5.90252 41.2996C5.90105 41.3094 5.8991 41.3191 5.89802 41.329C5.89568 41.3521 5.89441 41.3752 5.89441 41.3985V46.3926H1.4998V43.64C1.4998 43.2544 1.1707 42.9399 0.76738 42.9399C0.362987 42.9399 0.0349608 43.2544 0.0349608 43.64V47.0873C0.0349608 47.0892 0.034668 47.0909 0.034668 47.0928C0.034668 47.4102 0.255663 47.6779 0.558494 47.7638C0.624705 47.7826 0.694724 47.7931 0.76738 47.7931C0.768649 47.7931 0.769821 47.7929 0.771091 47.7929H35.9207C35.922 47.7929 35.9232 47.7931 35.9245 47.7931C36.3291 47.7931 36.6569 47.4797 36.6569 47.093V37.1058C36.6568 34.1462 34.1379 31.7383 31.0416 31.7383ZM7.35935 11.9017C7.35935 6.11124 12.2879 1.40018 18.3457 1.40018C24.4035 1.40018 29.3322 6.11124 29.3322 11.9017V13.7843C29.259 13.7558 29.1848 13.7276 29.1095 13.6996C27.1894 12.9859 23.7635 12.1351 18.3457 12.1351C12.928 12.1351 9.50211 12.9859 7.582 13.6996C7.50671 13.7276 7.43249 13.7559 7.35925 13.7843V11.9017H7.35935ZM8.46217 14.8796C10.2425 14.2664 13.4026 13.5353 18.3458 13.5353C23.2891 13.5353 26.449 14.2664 28.2295 14.8796C29.194 15.2119 29.9052 15.563 30.3995 15.8689H6.29216C6.7864 15.5632 7.49763 15.2121 8.46217 14.8796ZM17.6133 32.8251L14.576 33.5509L12.2422 32.0636V29.7403C13.8467 30.6065 15.6708 31.1421 17.6133 31.2504V32.8251ZM24.4493 32.0637L22.1155 33.551L19.0782 32.8252V31.2505C21.0207 31.1422 22.8449 30.6064 24.4494 29.7403V32.0637H24.4493ZM18.4943 29.8695C18.4463 29.8601 18.3966 29.8552 18.3457 29.8552C18.295 29.8552 18.2452 29.8602 18.1973 29.8695C12.2077 29.7933 7.35935 25.113 7.35935 19.3698V17.2692H29.3323V19.3698C29.3322 25.113 24.4839 29.7933 18.4943 29.8695ZM9.85992 39.2978H26.8316L28.2965 40.698H8.39509L9.85992 39.2978ZM29.3323 46.3925H7.35935V42.0982H29.3324V46.3925H29.3323Z" fill="black"/>
<path d="M18.3452 4.6673C16.8645 4.6673 15.6597 5.81889 15.6597 7.23428C15.6597 8.64967 16.8645 9.80127 18.3452 9.80127C19.826 9.80127 21.0308 8.64967 21.0308 7.23428C21.0309 5.81889 19.8261 4.6673 18.3452 4.6673ZM18.3452 8.4011C17.6721 8.4011 17.1245 7.87771 17.1245 7.23428C17.1245 6.59086 17.6722 6.06747 18.3452 6.06747C19.0184 6.06747 19.5659 6.59086 19.5659 7.23428C19.5659 7.87771 19.0185 8.4011 18.3452 8.4011Z" fill="black"/>
</svg>
