<svg width="49" height="49" viewBox="0 0 49 49" fill="none" xmlns="http://www.w3.org/2000/svg">
<path d="M36.9414 22.5859C37.4697 22.5859 37.8984 22.1572 37.8984 21.6289C37.8984 21.1006 37.4697 20.6719 36.9414 20.6719C36.4131 20.6719 35.9844 21.1006 35.9844 21.6289C35.9844 22.1572 36.4131 22.5859 36.9414 22.5859Z" fill="black"/>
<path d="M46.1289 1.53125H2.87109C1.28481 1.53125 0 2.81606 0 4.40234C0 5.8556 1.08556 7.05935 2.48828 7.24712V46.5117C2.48828 46.8433 2.65997 47.1514 2.94201 47.3258C3.22414 47.5002 3.57633 47.5161 3.87311 47.3678L5.10165 46.754C6.46149 46.0732 8.08538 46.0734 9.44647 46.7546C10.3831 47.2218 11.43 47.4688 12.4739 47.4688H14.1334C14.514 47.4688 14.8582 47.2435 15.0105 46.8948C15.5919 45.5635 15.8867 44.1467 15.8867 42.6836C15.8867 39.5043 14.4972 36.5722 12.0586 34.5634V31.5916C17.1995 26.3688 20.4725 19.5902 21.3744 12.3397C22.3537 12.784 23.4123 13.0156 24.5 13.0156C25.5877 13.0156 26.6464 12.784 27.6256 12.3396C28.5275 19.5901 31.8005 26.3687 36.9414 31.5915V34.5633C34.5028 36.5721 33.1133 39.5042 33.1133 42.6835C33.1133 44.1466 33.4081 45.5635 33.9895 46.8947C34.1418 47.2434 34.486 47.4687 34.8666 47.4687H36.5261C37.5361 47.4687 38.5821 47.2403 39.5547 46.7539C40.9145 46.0732 42.5384 46.0733 43.899 46.7542L45.1269 47.3677C45.4236 47.5159 45.7757 47.5001 46.058 47.3257C46.34 47.1513 46.5117 46.8432 46.5117 46.5116V7.2475C47.9123 7.06184 49 5.86316 49 4.40234C49 2.81922 47.712 1.53125 46.1289 1.53125ZM4.40234 34.0703V32.1562H10.1445V34.0703H4.40234ZM11.1016 13.0156C11.7189 13.0156 12.3262 12.9416 12.918 12.7947C12.7782 18.8673 10.0551 25.8117 6.02355 30.2422H4.40234V9.05887C5.72324 11.4295 8.26473 13.0156 11.1016 13.0156ZM10.701 30.2422H8.52629C12.4097 25.2877 14.9083 18.1658 14.8362 12.0286C16.0862 11.3209 17.1117 10.2751 17.7997 9.04193C18.2517 9.85512 18.8523 10.5884 19.573 11.1977C18.8921 18.3682 15.7561 25.1035 10.701 30.2422ZM11.1016 11.1016C8.64611 11.1016 6.48676 9.51643 5.68802 7.27248H16.5122C15.7032 9.50992 13.5518 11.1016 11.1016 11.1016ZM4.40234 44.9661V35.9844H6.26741C10.6096 40.4621 8.54208 43.6862 8.40733 44.4271C7.06069 44.2002 5.65682 44.3787 4.40234 44.9661ZM13.9727 42.6836C13.9727 43.6732 13.8081 44.6361 13.483 45.5547H12.4739C11.6344 45.5547 10.945 45.3541 10.2143 45.0016C11.4587 42.3349 11.2024 39.1176 8.79646 35.9844H10.7731C12.8103 37.6296 13.9727 40.0534 13.9727 42.6836ZM19.0888 7.27248H29.9112C29.1062 9.50523 26.9559 11.1016 24.5 11.1016C22.0491 11.1016 19.8954 9.50973 19.0888 7.27248ZM38.8555 34.0703V32.1562H44.5977V34.0703C43.3392 34.0703 39.4235 34.0703 38.8555 34.0703ZM34.8549 18.1895C34.972 18.706 35.4856 19.0278 36 18.911C36.5154 18.7941 36.8385 18.2814 36.7215 17.7659C36.3318 16.0488 36.1182 14.3826 36.0818 12.7946C36.6736 12.9416 37.281 13.0156 37.8984 13.0156C40.7353 13.0156 43.2768 11.4296 44.5977 9.05887V30.2422H42.9738C41.5933 28.7223 40.3101 26.8277 39.2473 24.7372C39.0078 24.266 38.4317 24.0781 37.9605 24.3178C37.4893 24.5573 37.3015 25.1334 37.5411 25.6046C38.3993 27.2924 39.3962 28.865 40.4746 30.2422H38.299C33.244 25.1035 30.108 18.3682 29.4271 11.1977C30.1478 10.5884 30.7484 9.85512 31.2004 9.04193C31.8883 10.275 32.9139 11.3208 34.164 12.0286C34.1395 13.9873 34.3708 16.0563 34.8549 18.1895ZM37.8984 11.1016C35.4494 11.1016 33.2968 9.50983 32.4879 7.27248H43.3121C42.5132 9.51634 40.3539 11.1016 37.8984 11.1016ZM36.5261 45.5547H35.517C35.1919 44.6361 35.0273 43.6732 35.0273 42.6836C35.0273 40.0535 36.1897 37.6287 38.2269 35.9834H40.2035C38.139 38.672 37.3362 41.9012 38.7858 45.0016C38.0589 45.3525 37.3725 45.5547 36.5261 45.5547ZM40.5927 44.4269C40.471 43.7589 38.3621 40.4913 42.7326 35.9844H44.5977V44.9662C43.3428 44.3785 41.9389 44.2 40.5927 44.4269ZM46.1289 5.35938H2.87109C2.34339 5.35938 1.91406 4.93005 1.91406 4.40234C1.91406 3.87416 2.34272 3.44531 2.87109 3.44531H46.1289C46.6566 3.44531 47.0859 3.87464 47.0859 4.40234C47.0859 4.93053 46.6573 5.35938 46.1289 5.35938Z" fill="black"/>
</svg>
