<svg width="51" height="51" viewBox="0 0 51 51" fill="none" xmlns="http://www.w3.org/2000/svg">
<path d="M49.8409 13.9091H37.0909V12.2423C37.0909 10.6439 36.0072 9.25656 34.4575 8.86828L32.4545 8.36754V8.11374C32.4545 6.19656 30.8943 4.63647 28.9773 4.63647H8.11368C3.63953 4.63638 0 8.276 0 12.7501V17.3864C0 21.8605 3.63953 25.5001 8.11368 25.5001H18.5455C19.1853 25.5001 19.7045 24.9808 19.7045 24.341C19.7045 23.7012 19.1853 23.1819 18.5455 23.1819H8.11368C4.91811 23.1819 2.31821 20.5821 2.31821 17.3865V12.7501C2.31821 9.55449 4.91801 6.95458 8.11368 6.95458H28.9774C29.6161 6.95458 30.1364 7.47504 30.1364 8.11364V22.0227C30.1364 22.6614 29.616 23.1817 28.9774 23.1817H23.1819C22.6499 23.1817 22.1862 23.5434 22.0576 24.0592L21.3378 26.9395C21.208 27.4565 20.7455 27.8181 20.2123 27.8181H17.5998C17.048 27.8181 16.574 28.2052 16.4638 28.7453L15.1251 35.3093C15.015 35.9166 15.0856 36.5252 15.2874 37.0908H12.75C12.1102 37.0908 11.5909 37.6101 11.5909 38.2499C11.5909 38.8897 12.1102 39.4089 12.75 39.4089H17.3863C17.5312 39.4089 17.6668 39.3754 17.7943 39.3266C18.0389 39.3799 18.2904 39.4089 18.5454 39.4089H19.7044C20.3431 39.4089 20.8635 39.9294 20.8635 40.568V42.8862C20.8635 43.5249 20.343 44.0452 19.7044 44.0452H10.4317C9.793 44.0452 9.27264 43.5248 9.27264 42.8862C9.27264 40.6434 9.4592 38.3831 9.83244 36.1391L10.8061 29.1371C10.8942 28.5031 10.4514 27.9178 9.8174 27.8296C9.18339 27.7404 8.59808 28.1831 8.50993 28.8183L7.54093 35.7891C7.15146 38.1281 6.95443 40.5159 6.95443 42.8862C6.95443 44.8034 8.51461 46.3634 10.4317 46.3634H19.7044C21.6216 46.3634 23.1817 44.8033 23.1817 42.8862V40.568C23.1817 38.6508 21.6215 37.0907 19.7044 37.0907H18.5454C18.0736 37.0907 17.7851 36.8299 17.6552 36.6746C17.5254 36.5193 17.3202 36.1889 17.4002 35.7497L18.5454 30.1362H20.2121C21.8106 30.1362 23.1979 29.0536 23.5862 27.5027L24.087 25.5001H28.9773C30.8944 25.5001 32.4545 23.9399 32.4545 22.0228V21.769L34.4575 21.2683C36.0072 20.8811 37.0909 19.4937 37.0909 17.8942V16.2274H49.8409C50.4807 16.2274 51 15.7082 51 15.0684C51 14.4285 50.4807 13.9091 49.8409 13.9091ZM34.7727 17.8941C34.7727 18.4273 34.4111 18.8898 33.8942 19.0184L32.4546 19.3789V10.7576L33.8942 11.1181C34.4112 11.2468 34.7727 11.7092 34.7727 12.2423V17.8941Z" fill="black"/>
<path d="M11.5909 13.9089H6.95453C6.31474 13.9089 5.79547 14.4282 5.79547 15.068C5.79547 15.7078 6.31474 16.227 6.95453 16.227H11.5908C12.2306 16.227 12.7499 15.7078 12.7499 15.068C12.75 14.4283 12.2307 13.9089 11.5909 13.9089Z" fill="black"/>
<path d="M11.5909 10.4316H6.95453C6.31474 10.4316 5.79547 10.9509 5.79547 11.5907C5.79547 12.2305 6.31474 12.7498 6.95453 12.7498H11.5908C12.2306 12.7498 12.7499 12.2306 12.7499 11.5908C12.7499 10.951 12.2307 10.4316 11.5909 10.4316Z" fill="black"/>
<path d="M11.5909 17.3862H6.95453C6.31474 17.3862 5.79547 17.9055 5.79547 18.5453C5.79547 19.1851 6.31474 19.7043 6.95453 19.7043H11.5908C12.2306 19.7043 12.7499 19.1851 12.7499 18.5453C12.7499 17.9055 12.2307 17.3862 11.5909 17.3862Z" fill="black"/>
</svg>
