<svg width="50" height="43" viewBox="0 0 50 43" fill="none" xmlns="http://www.w3.org/2000/svg">
<path d="M49.5781 26.014C48.5729 24.1629 46.3431 23.5207 44.597 24.5746C44.28 24.7407 40.2259 26.8595 36.8864 28.3537C36.5136 28.5206 36.3385 28.9774 36.4953 29.3739C36.6522 29.7705 37.0817 29.9564 37.4548 29.7898C40.9567 28.2228 45.2232 25.9835 45.2658 25.9612C45.2799 25.9538 45.2936 25.946 45.3071 25.9377C46.3567 25.2941 47.7035 25.6778 48.3095 26.7935C49.0111 28.0838 47.9156 29.5003 47.3794 30.0791C43.7421 33.1991 33.6771 41.1999 30.2942 41.1999C26.5442 41.1999 16.0218 38.8294 13.4484 38.2365V25.5113C18.5509 24.714 21.2539 25.7139 26.9184 27.8133C28.6416 28.4518 30.5939 29.1751 32.9667 29.9819C33.3204 30.1457 34.3017 30.7331 33.9277 32.0607C33.7003 32.8676 32.9669 33.6378 31.8942 33.4248C30.4519 33.137 21.964 31.9127 21.6032 31.8608C21.2025 31.802 20.8332 32.1017 20.779 32.5282C20.7246 32.9545 21.0056 33.347 21.4066 33.4047C21.4945 33.4173 30.218 34.6754 31.624 34.9561C31.8422 34.9996 32.0541 35.0202 32.2589 35.0202C33.8144 35.0202 34.9582 33.8331 35.3316 32.5078C35.7244 31.113 35.316 29.3475 33.5214 28.5396C33.5189 28.5383 33.5163 28.5372 33.5137 28.5359C33.5114 28.5349 33.5093 28.5336 33.5069 28.5327C33.497 28.5282 33.487 28.5252 33.477 28.5213C33.4669 28.5173 33.4572 28.5128 33.4468 28.5092C31.0766 27.7041 29.1237 26.9804 27.4007 26.342C21.7516 24.2488 18.7746 23.1474 13.4484 23.9381V23.2868C13.4484 22.8565 13.1205 22.5077 12.7158 22.5077H10.5187V21.7291C10.5187 21.2988 10.1907 20.9501 9.78604 20.9501H0.732617C0.32793 20.9501 0 21.2988 0 21.7291V38.8626C0 39.2929 0.32793 39.6417 0.732617 39.6417C1.13721 39.6417 1.46523 39.2929 1.46523 38.8626V22.5082H9.05332V41.2H7.58887V40.4213C7.58887 39.991 7.26094 39.6423 6.85625 39.6423C6.45156 39.6423 6.12364 39.991 6.12364 40.4213V41.2H0.732617C0.32793 41.2 0 41.5487 0 41.979C0 42.4093 0.32793 42.7581 0.732617 42.7581H9.78594C10.1906 42.7581 10.5186 42.4093 10.5186 41.979V41.1608H12.7157C13.1204 41.1608 13.4483 40.812 13.4483 40.3818V39.8313C16.5136 40.5356 26.4898 42.7581 30.2941 42.7581C32.2962 42.7581 35.8464 40.8611 41.1473 36.9593C44.9702 34.1452 48.298 31.2929 48.3311 31.2644C48.3514 31.247 48.3707 31.2284 48.3892 31.2089C49.9808 29.5141 50.4252 27.572 49.5781 26.014ZM11.983 38.8507C11.983 38.8507 11.983 38.8522 11.983 38.8528V39.6028H10.5186V39.6027V24.0657H11.9831V38.8507H11.983Z" fill="black"/>
<path d="M41.0463 0.643188H18.5798C17.0986 0.643188 15.8936 1.92463 15.8936 3.49964V17.0033C15.8936 18.5783 17.0986 19.8597 18.5798 19.8597H41.0463C42.5275 19.8597 43.7325 18.5783 43.7325 17.0033V3.49964C43.7325 1.92463 42.5274 0.643188 41.0463 0.643188ZM17.3587 3.49964C17.3587 2.78363 17.9063 2.20127 18.5797 2.20127H41.0462C41.7195 2.20127 42.2672 2.78363 42.2672 3.49964V3.75967H17.3587V3.49964ZM42.2673 17.0034C42.2673 17.7193 41.7197 18.3018 41.0463 18.3018H18.5798C17.9064 18.3018 17.3588 17.7194 17.3588 17.0034V9.4732H42.2673V17.0034ZM17.3587 7.91512V5.31775H42.2672V7.91512H17.3587Z" fill="black"/>
<path d="M26.3938 13.1084H19.5559C19.1512 13.1084 18.8232 13.4572 18.8232 13.8876C18.8232 14.318 19.1512 14.6667 19.5559 14.6667H26.3938C26.7985 14.6667 27.1265 14.318 27.1265 13.8876C27.1265 13.4572 26.7985 13.1084 26.3938 13.1084Z" fill="black"/>
<path d="M40.07 13.1084H38.1164C37.7117 13.1084 37.3838 13.4572 37.3838 13.8876C37.3838 14.318 37.7117 14.6667 38.1164 14.6667H40.07C40.4746 14.6667 40.8026 14.318 40.8026 13.8876C40.8026 13.4572 40.4747 13.1084 40.07 13.1084Z" fill="black"/>
</svg>
