<svg width="53" height="53" viewBox="0 0 53 53" fill="none" xmlns="http://www.w3.org/2000/svg">
<path d="M45.2383 7.76165C40.2332 2.75651 33.5783 0 26.5 0C20.9178 0 15.5775 1.7165 11.0564 4.9643C10.5922 5.2979 10.4858 5.94487 10.8194 6.40907C11.153 6.87328 11.8 6.97962 12.2642 6.64603C16.4311 3.65257 21.3537 2.07031 26.5 2.07031C39.9704 2.07031 50.9297 13.0296 50.9297 26.5C50.9297 39.9704 39.9704 50.9297 26.5 50.9297C13.0296 50.9297 2.07031 39.9704 2.07031 26.5C2.07031 21.3533 3.65216 16.4311 6.64522 12.265C6.97881 11.8004 6.87287 11.1538 6.40867 10.8202C5.94406 10.4866 5.29749 10.5926 4.9639 11.0568C1.7165 15.5775 0 20.9174 0 26.5C0 33.5783 2.75651 40.2332 7.76165 45.2383C12.7668 50.2435 19.4217 53 26.5 53C33.5783 53 40.2332 50.2435 45.2383 45.2383C50.2435 40.2332 53 33.5783 53 26.5C53 19.4217 50.2435 12.7668 45.2383 7.76165Z" fill="#C1955B"/>
<path d="M43.644 39.2239C44.1187 39.5426 44.762 39.416 45.0802 38.9409C47.5525 35.2556 48.8594 30.9536 48.8594 26.5C48.8594 20.5276 46.5335 14.9127 42.3104 10.6892C38.0873 6.46649 32.4724 4.14062 26.5 4.14062C20.5276 4.14062 14.9127 6.46649 10.6896 10.6896C6.46649 14.9127 4.14062 20.5276 4.14062 26.5C4.14062 32.4724 6.46649 38.0873 10.6896 42.3104C14.9127 46.5335 20.5276 48.8594 26.5 48.8594C30.9544 48.8594 35.2568 47.5525 38.9421 45.0798C39.4168 44.7612 39.5434 44.1183 39.2247 43.6436C38.9061 43.1688 38.2628 43.0423 37.7885 43.3609C34.4456 45.6035 30.5424 46.7891 26.5 46.7891C15.3126 46.7891 6.21094 37.6874 6.21094 26.5C6.21094 15.3126 15.3126 6.21094 26.5 6.21094C37.6874 6.21094 46.7891 15.3126 46.7891 26.5C46.7891 30.5416 45.6039 34.4448 43.3609 37.7877C43.0427 38.2624 43.1693 38.9057 43.644 39.2239Z" fill="#C1955B"/>
<path d="M8.49301 9.52869C8.75827 9.52869 9.02313 9.4276 9.2253 9.22543C9.62966 8.82147 9.62966 8.16601 9.2253 7.76165C8.82095 7.35729 8.16589 7.35729 7.76153 7.76165L7.76112 7.76205C7.35677 8.16641 7.35717 8.82147 7.76112 9.22583C7.9633 9.42801 8.22816 9.52869 8.49301 9.52869Z" fill="#C1955B"/>
<path d="M40.8135 40.8818L40.8131 40.8822C40.4286 41.3052 40.4597 41.9594 40.8831 42.344C41.0812 42.5243 41.3303 42.6133 41.579 42.6133C41.8604 42.6133 42.141 42.4988 42.3456 42.2744C42.7302 41.8514 42.6986 41.1964 42.2757 40.8118C41.8527 40.4273 41.1981 40.4584 40.8135 40.8818Z" fill="#C1955B"/>
<path d="M20.8164 37.8867C20.8164 39.5992 22.2094 40.9922 23.9219 40.9922H29.0774C30.7899 40.9922 32.1829 39.5992 32.1829 37.8867C32.1829 36.3542 31.0673 35.0772 29.6051 34.8261V23.3945C29.6051 21.6825 28.2121 20.2891 26.4997 20.2891H23.9219C22.2094 20.2891 20.8164 21.6825 20.8164 23.3945C20.8164 24.9275 21.9324 26.204 23.3942 26.4551V34.8261C21.932 35.0772 20.8164 36.3542 20.8164 37.8867ZM24.4293 24.4297H23.9219C23.3509 24.4297 22.8867 23.9655 22.8867 23.3945C22.8867 22.824 23.3509 22.3594 23.9219 22.3594H26.4997C27.0706 22.3594 27.5348 22.824 27.5348 23.3945V35.8164C27.5348 36.3882 27.9982 36.8516 28.57 36.8516H29.0774C29.6484 36.8516 30.1126 37.3162 30.1126 37.8867C30.1126 38.4577 29.6484 38.9219 29.0774 38.9219H23.9219C23.3509 38.9219 22.8863 38.4577 22.8863 37.8867C22.8863 37.3162 23.3509 36.8516 23.9219 36.8516H24.4293C25.0007 36.8516 25.4645 36.3882 25.4645 35.8164V25.4648C25.4645 24.8931 25.0011 24.4297 24.4293 24.4297Z" fill="#C1955B"/>
<path d="M28.9844 15.1133C28.9844 13.4008 27.5914 12.0078 25.8789 12.0078C24.1665 12.0078 22.7734 13.4008 22.7734 15.1133C22.7734 16.8257 24.1665 18.2188 25.8789 18.2188C27.5914 18.2188 28.9844 16.8257 28.9844 15.1133ZM24.8438 15.1133C24.8438 14.5423 25.308 14.0781 25.8789 14.0781C26.4499 14.0781 26.9141 14.5423 26.9141 15.1133C26.9141 15.6838 26.4499 16.1484 25.8789 16.1484C25.308 16.1484 24.8438 15.6842 24.8438 15.1133Z" fill="#C1955B"/>
</svg>
