<svg width="102" height="57" viewBox="0 0 102 57" fill="none" xmlns="http://www.w3.org/2000/svg">
<path fill-rule="evenodd" clip-rule="evenodd" d="M26.2696 15.345L34.0546 0L62.6296 56.52H47.0596L26.2696 15.345ZM10.8796 47.7C10.8796 42.885 14.7946 38.97 19.6096 38.97C24.4246 38.97 28.3396 42.885 28.3396 47.7C28.3396 52.515 24.4246 56.43 19.6096 56.43C14.7946 56.43 10.8796 52.515 10.8796 47.7Z" fill="#C19355"/>
<path d="M17.94 29.84C17.02 30.6 16.11 31.38 15.21 32.18C14.31 32.96 13.43 33.77 12.57 34.61C12.15 35.01 11.71 35.42 11.25 35.84C10.81 36.26 10.37 36.7 9.93 37.16C9.51 37.6 9.11 38.07 8.73 38.57C8.35 39.05 8.04 39.55 7.8 40.07C8.5 39.93 9.18 39.7 9.84 39.38C10.52 39.06 11.2 38.78 11.88 38.54C12.28 38.4 12.68 38.28 13.08 38.18C13.5 38.06 13.92 37.98 14.34 37.94C14.52 37.92 14.7 37.94 14.88 38C15.06 38.06 15.21 38.15 15.33 38.27C15.45 38.39 15.52 38.54 15.54 38.72C15.58 38.88 15.53 39.06 15.39 39.26C15.23 39.48 14.99 39.6 14.67 39.62C14.35 39.64 14.07 39.68 13.83 39.74C13.29 39.84 12.76 39.99 12.24 40.19C11.74 40.39 11.23 40.6 10.71 40.82C10.17 41.04 9.6 41.27 9 41.51C8.4 41.75 7.8 41.86 7.2 41.84C6.56 41.8 6.17 41.62 6.03 41.3C5.89 40.98 5.9 40.59 6.06 40.13C5.4 40.41 4.71 40.68 3.99 40.94C3.27 41.18 2.56 41.32 1.86 41.36C1.64 41.36 1.44 41.34 1.26 41.3C1.08 41.26 0.91 41.16 0.75 41C0.49 40.74 0.39 40.48 0.45 40.22C0.51 39.94 0.65 39.68 0.87 39.44C1.07 39.18 1.31 38.95 1.59 38.75C1.87 38.55 2.11 38.4 2.31 38.3C3.03 37.94 3.8 37.72 4.62 37.64C5.44 37.56 6.24 37.62 7.02 37.82C7.04 37.84 7.07 37.85 7.11 37.85C7.19 37.81 7.26 37.79 7.32 37.79C7.4 37.77 7.47 37.75 7.53 37.73C7.81 37.37 8.09 37.03 8.37 36.71C8.67 36.39 8.94 36.1 9.18 35.84C9.44 35.56 9.66 35.33 9.84 35.15C10.04 34.95 10.18 34.81 10.26 34.73C11.06 33.93 11.87 33.15 12.69 32.39C13.53 31.63 14.38 30.88 15.24 30.14C15.5 29.9 15.8 29.6 16.14 29.24C16.5 28.86 16.86 28.62 17.22 28.52C17.42 28.46 17.59 28.47 17.73 28.55C17.89 28.61 18.01 28.72 18.09 28.88C18.17 29.02 18.2 29.18 18.18 29.36C18.16 29.54 18.08 29.7 17.94 29.84ZM28.6723 39.59C28.2123 39.63 27.7523 39.71 27.2923 39.83C26.8523 39.93 26.4023 40.03 25.9423 40.13C24.7423 40.41 23.5523 40.68 22.3723 40.94C21.1923 41.18 19.9923 41.36 18.7723 41.48C18.4523 41.52 18.1123 41.55 17.7523 41.57C17.4123 41.59 17.0623 41.58 16.7023 41.54C16.3623 41.5 16.0323 41.42 15.7123 41.3C15.3923 41.2 15.1023 41.04 14.8423 40.82C14.6223 40.64 14.4523 40.43 14.3323 40.19C14.1923 39.95 14.1123 39.7 14.0923 39.44C14.0523 39.18 14.0723 38.93 14.1523 38.69C14.2323 38.43 14.3823 38.2 14.6023 38C14.7423 37.86 14.9623 37.75 15.2623 37.67C15.5823 37.57 15.9323 37.5 16.3123 37.46C16.6923 37.42 17.0723 37.41 17.4523 37.43C17.8323 37.45 18.1623 37.52 18.4423 37.64C18.7223 37.76 18.9123 37.93 19.0123 38.15C19.1323 38.35 19.1223 38.61 18.9823 38.93C18.8623 39.17 18.6823 39.34 18.4423 39.44C18.2023 39.54 17.9323 39.61 17.6323 39.65C17.3323 39.67 17.0223 39.67 16.7023 39.65C16.3823 39.61 16.1023 39.57 15.8623 39.53C15.9423 39.61 16.1023 39.68 16.3423 39.74C16.5823 39.78 16.8323 39.81 17.0923 39.83C17.3723 39.85 17.6223 39.86 17.8423 39.86C18.0823 39.86 18.2323 39.86 18.2923 39.86C19.2723 39.78 20.2423 39.64 21.2023 39.44C22.1823 39.24 23.1523 39.03 24.1123 38.81C24.8123 38.65 25.5023 38.49 26.1823 38.33C26.8823 38.15 27.5823 38.02 28.2823 37.94C28.5823 37.92 28.8323 37.99 29.0323 38.15C29.2323 38.31 29.3623 38.5 29.4223 38.72C29.4823 38.92 29.4523 39.11 29.3323 39.29C29.2323 39.47 29.0123 39.57 28.6723 39.59ZM28.1569 39.35C27.9169 39.11 27.7969 38.88 27.7969 38.66C27.7969 38.44 27.8669 38.27 28.0069 38.15C28.1469 38.01 28.3169 37.93 28.5169 37.91C28.7169 37.87 28.9069 37.92 29.0869 38.06C29.3469 38.28 29.7069 38.42 30.1669 38.48C30.6269 38.54 31.0869 38.6 31.5469 38.66C32.0069 38.7 32.4169 38.78 32.7769 38.9C33.1569 39 33.3969 39.21 33.4969 39.53C34.2369 39.31 34.9869 39.12 35.7469 38.96C36.5069 38.78 37.1969 38.62 37.8169 38.48C38.0969 38.42 38.4269 38.35 38.8069 38.27C39.1869 38.17 39.5769 38.08 39.9769 38C40.3769 37.92 40.7669 37.88 41.1469 37.88C41.5269 37.86 41.8669 37.89 42.1669 37.97C42.3269 38.03 42.4469 38.12 42.5269 38.24C42.6269 38.36 42.6869 38.5 42.7069 38.66C42.7469 38.8 42.7369 38.94 42.6769 39.08C42.6369 39.22 42.5469 39.34 42.4069 39.44C42.2069 39.6 41.9469 39.67 41.6269 39.65C41.3269 39.63 41.0569 39.64 40.8169 39.68C39.4969 39.84 38.1769 40.07 36.8569 40.37C35.5569 40.67 34.2769 41.03 33.0169 41.45C32.8369 41.51 32.5969 41.61 32.2969 41.75C32.0169 41.91 31.7269 42.04 31.4269 42.14C31.1469 42.24 30.8769 42.28 30.6169 42.26C30.3569 42.26 30.1569 42.14 30.0169 41.9C29.9169 41.7 29.8769 41.51 29.8969 41.33C29.9369 41.15 30.0169 40.99 30.1369 40.85C30.2769 40.69 30.4369 40.56 30.6169 40.46C30.7969 40.34 30.9869 40.25 31.1869 40.19C30.9669 40.15 30.7169 40.12 30.4369 40.1C30.1569 40.06 29.8769 40.02 29.5969 39.98C29.3169 39.92 29.0469 39.85 28.7869 39.77C28.5269 39.67 28.3169 39.53 28.1569 39.35ZM49.8806 32.33C49.8806 32.55 49.8506 32.72 49.7906 32.84C49.7306 32.96 49.6406 33.05 49.5206 33.11C49.4006 33.15 49.2606 33.16 49.1006 33.14C48.9406 33.12 48.7806 33.09 48.6206 33.05C48.6206 33.43 48.4806 33.76 48.2006 34.04C48.0006 34.24 47.6906 34.4 47.2706 34.52C46.8706 34.64 46.4306 34.71 45.9506 34.73C45.4706 34.75 44.9906 34.73 44.5106 34.67C44.0306 34.59 43.6106 34.46 43.2506 34.28C42.8906 34.1 42.6306 33.86 42.4706 33.56C42.3106 33.26 42.3206 32.89 42.5006 32.45C42.6406 32.07 42.8706 31.78 43.1906 31.58C43.5306 31.36 43.9006 31.2 44.3006 31.1C44.7206 31 45.1406 30.94 45.5606 30.92C46.0006 30.9 46.3906 30.9 46.7306 30.92C46.9306 30.92 47.2006 30.94 47.5406 30.98C47.9006 31.02 48.2506 31.09 48.5906 31.19C48.9306 31.29 49.2206 31.43 49.4606 31.61C49.7206 31.79 49.8606 32.03 49.8806 32.33ZM42.2006 37.94C42.4606 37.96 42.6606 38.03 42.8006 38.15C42.9406 38.25 43.0306 38.39 43.0706 38.57C43.1306 38.73 43.1506 38.91 43.1306 39.11C43.1106 39.31 43.0806 39.51 43.0406 39.71C43.2206 39.67 43.3906 39.65 43.5506 39.65C43.7306 39.63 43.8806 39.6 44.0006 39.56C44.5006 39.44 45.0106 39.29 45.5306 39.11C46.1906 38.89 46.8506 38.68 47.5106 38.48C48.1906 38.26 48.8806 38.1 49.5806 38C49.7806 37.98 49.9906 38 50.2106 38.06C50.4506 38.12 50.6406 38.22 50.7806 38.36C50.9406 38.5 51.0206 38.67 51.0206 38.87C51.0406 39.05 50.9206 39.24 50.6606 39.44C50.5206 39.54 50.3706 39.59 50.2106 39.59C50.0706 39.59 49.9206 39.6 49.7606 39.62C49.4606 39.66 49.1606 39.71 48.8606 39.77C48.5606 39.83 48.2706 39.9 47.9906 39.98C47.3906 40.14 46.7906 40.31 46.1906 40.49C45.6106 40.67 45.0306 40.86 44.4506 41.06C44.1106 41.18 43.7106 41.31 43.2506 41.45C42.8106 41.61 42.4006 41.63 42.0206 41.51C41.7806 41.41 41.6106 41.27 41.5106 41.09C41.3906 40.93 41.3206 40.75 41.3006 40.55C41.2606 40.33 41.2606 40.11 41.3006 39.89C41.3406 39.67 41.3906 39.46 41.4506 39.26C41.3706 39.14 41.3306 39 41.3306 38.84C41.3306 38.68 41.3606 38.54 41.4206 38.42C41.4806 38.28 41.5806 38.17 41.7206 38.09C41.8406 37.99 42.0006 37.94 42.2006 37.94ZM47.5406 33.2C47.6206 32.98 47.5706 32.79 47.3906 32.63C47.3506 32.61 47.3206 32.6 47.3006 32.6C47.2806 32.6 47.2606 32.59 47.2406 32.57C47.0206 32.53 46.7406 32.49 46.4006 32.45C46.0806 32.39 45.7406 32.36 45.3806 32.36C45.0406 32.36 44.7206 32.41 44.4206 32.51C44.1206 32.59 43.9006 32.73 43.7606 32.93C43.7606 32.95 43.7506 32.97 43.7306 32.99C43.7706 33.15 43.9106 33.28 44.1506 33.38C44.4106 33.46 44.6906 33.52 44.9906 33.56C45.2906 33.6 45.5806 33.62 45.8606 33.62C46.1406 33.62 46.3306 33.62 46.4306 33.62C46.6306 33.58 46.8206 33.54 47.0006 33.5C47.2006 33.44 47.3806 33.34 47.5406 33.2ZM62.8336 39.62C61.7336 39.58 60.6436 39.67 59.5636 39.89C58.5036 40.11 57.4636 40.41 56.4436 40.79C56.3036 41.15 56.1036 41.5 55.8436 41.84C55.5836 42.2 55.2936 42.53 54.9736 42.83C54.6536 43.15 54.3336 43.44 54.0136 43.7C53.7136 43.96 53.4436 44.18 53.2036 44.36C52.9636 44.54 52.6336 44.79 52.2136 45.11C51.7936 45.43 51.3536 45.72 50.8936 45.98C50.4336 46.24 49.9736 46.42 49.5136 46.52C49.0336 46.64 48.6236 46.58 48.2836 46.34C47.8236 46.02 47.6436 45.65 47.7436 45.23C47.8236 44.81 48.0736 44.38 48.4936 43.94C48.9136 43.52 49.4436 43.09 50.0836 42.65C50.7236 42.23 51.3536 41.84 51.9736 41.48C52.6136 41.12 53.1836 40.82 53.6836 40.58C54.2036 40.34 54.5436 40.18 54.7036 40.1L54.9136 40.01V39.89C54.6736 39.85 54.4036 39.86 54.1036 39.92C53.8236 39.96 53.5336 40.04 53.2336 40.16C52.9336 40.26 52.6436 40.37 52.3636 40.49C52.0836 40.59 51.8336 40.68 51.6136 40.76C51.3736 40.84 51.1236 40.93 50.8636 41.03C50.6036 41.13 50.3336 41.21 50.0536 41.27C49.7936 41.35 49.5336 41.39 49.2736 41.39C48.9936 41.41 48.7336 41.37 48.4936 41.27C48.1536 41.11 47.9536 40.9 47.8936 40.64C47.8136 40.38 47.8236 40.12 47.9236 39.86C48.0036 39.58 48.1436 39.32 48.3436 39.08C48.5436 38.84 48.7536 38.64 48.9736 38.48C49.5336 38.08 50.1436 37.82 50.8036 37.7C51.4836 37.58 52.1536 37.56 52.8136 37.64C53.0536 37.68 53.3536 37.74 53.7136 37.82C54.0936 37.88 54.3836 38.02 54.5836 38.24C54.9836 38.2 55.3536 38.25 55.6936 38.39C56.0536 38.53 56.3136 38.8 56.4736 39.2C56.4736 39.26 56.4936 39.31 56.5336 39.35C58.0136 38.79 59.5036 38.38 61.0036 38.12C61.1436 38.1 61.3136 38.07 61.5136 38.03C61.7336 37.99 61.9536 37.96 62.1736 37.94C62.3936 37.9 62.6036 37.89 62.8036 37.91C63.0036 37.93 63.1736 37.98 63.3136 38.06C63.4936 38.18 63.6036 38.33 63.6436 38.51C63.7036 38.69 63.7036 38.87 63.6436 39.05C63.6036 39.21 63.5036 39.35 63.3436 39.47C63.2036 39.57 63.0336 39.62 62.8336 39.62ZM52.4536 42.83C52.5536 42.73 52.6836 42.62 52.8436 42.5C53.0036 42.38 53.1736 42.24 53.3536 42.08C52.9736 42.28 52.6336 42.47 52.3336 42.65C52.2136 42.71 52.0136 42.82 51.7336 42.98C51.4736 43.14 51.1936 43.32 50.8936 43.52C50.5936 43.74 50.3036 43.97 50.0236 44.21C49.7436 44.45 49.5436 44.67 49.4236 44.87C49.9636 44.71 50.4936 44.41 51.0136 43.97C51.5536 43.55 52.0336 43.17 52.4536 42.83ZM54.9436 39.89V39.92C54.9636 39.92 54.9736 39.91 54.9736 39.89H54.9436ZM54.9436 39.92C54.9436 39.92 54.9536 39.91 54.9736 39.89H54.9436V39.92ZM62.9135 37.94C63.0735 37.94 63.2235 37.97 63.3635 38.03C63.5235 38.07 63.6535 38.15 63.7535 38.27C63.9335 38.49 64.0135 38.7 63.9935 38.9C63.9935 39.08 63.9435 39.26 63.8435 39.44C64.3635 39.34 64.8835 39.22 65.4035 39.08C65.9235 38.94 66.4435 38.8 66.9635 38.66C67.2035 38.6 67.4635 38.53 67.7435 38.45C68.0235 38.37 68.3035 38.31 68.5835 38.27C68.8835 38.23 69.1735 38.22 69.4535 38.24C69.7535 38.24 70.0235 38.3 70.2635 38.42C70.6035 38.58 70.8035 38.77 70.8635 38.99C70.9235 39.21 70.9035 39.44 70.8035 39.68C71.0835 39.6 71.3635 39.53 71.6435 39.47C71.9235 39.39 72.2035 39.3 72.4835 39.2C73.0235 39.04 73.5635 38.88 74.1035 38.72C74.6635 38.54 75.2235 38.37 75.7835 38.21C76.0435 38.13 76.3435 38.05 76.6835 37.97C77.0435 37.87 77.3535 37.91 77.6135 38.09C77.7735 38.21 77.8735 38.36 77.9135 38.54C77.9535 38.7 77.9435 38.87 77.8835 39.05C77.8435 39.21 77.7535 39.35 77.6135 39.47C77.4735 39.57 77.3135 39.62 77.1335 39.62C76.3735 39.68 75.6035 39.86 74.8235 40.16C74.0435 40.46 73.2935 40.72 72.5735 40.94C72.3535 41 72.0935 41.08 71.7935 41.18C71.5135 41.28 71.2235 41.37 70.9235 41.45C70.6235 41.53 70.3235 41.58 70.0235 41.6C69.7235 41.62 69.4535 41.58 69.2135 41.48C68.9335 41.36 68.7335 41.16 68.6135 40.88C68.5135 40.58 68.5035 40.28 68.5835 39.98C68.1435 40.02 67.7135 40.09 67.2935 40.19C66.8735 40.29 66.4535 40.39 66.0335 40.49C65.7535 40.57 65.4535 40.66 65.1335 40.76C64.8335 40.86 64.5235 40.96 64.2035 41.06C63.9035 41.16 63.5935 41.24 63.2735 41.3C62.9735 41.36 62.6735 41.38 62.3735 41.36C62.1935 41.34 62.0135 41.28 61.8335 41.18C61.5935 41.02 61.4535 40.85 61.4135 40.67C61.3735 40.49 61.3935 40.31 61.4735 40.13C61.5335 39.95 61.6335 39.77 61.7735 39.59C61.8935 39.41 62.0135 39.24 62.1335 39.08C62.0535 38.82 62.0835 38.57 62.2235 38.33C62.3435 38.07 62.5735 37.94 62.9135 37.94Z" fill="#452705"/>
</svg>
