<svg width="45" height="45" viewBox="0 0 45 45" fill="none" xmlns="http://www.w3.org/2000/svg">
<path d="M29.7001 21.6211C30.1855 21.6211 30.579 21.2276 30.579 20.7422C30.579 20.2568 30.1855 19.8633 29.7001 19.8633C29.2147 19.8633 28.8212 20.2568 28.8212 20.7422C28.8212 21.2276 29.2147 21.6211 29.7001 21.6211Z" fill="black"/>
<path d="M29.8509 24.5082C29.3711 24.4369 28.9238 24.7687 28.8527 25.2488C28.6125 26.8708 27.2414 28.2161 25.1851 28.8475C22.9873 29.5224 19.9365 29.2962 18.0754 27.2695C17.747 26.912 17.191 26.8884 16.8336 27.2166C16.4761 27.545 16.4524 28.101 16.7807 28.4584C17.8581 29.6317 19.3213 30.4313 21.0124 30.7708C21.6095 30.8907 22.2289 30.9502 22.8524 30.9502C23.8155 30.9502 24.7881 30.8082 25.7011 30.5279C28.4214 29.6927 30.2496 27.8155 30.5915 25.5063C30.6627 25.0262 30.331 24.5793 29.8509 24.5082Z" fill="black"/>
<path d="M42.0668 16.7353C40.4693 14.8834 38.2644 13.6826 35.6105 13.2004C38.1514 11.4856 40.343 9.77915 41.9057 8.29011C44.2884 6.0198 45.0873 4.42441 44.4202 3.26962C43.6779 1.98343 41.535 1.9923 37.6761 3.29783C34.4156 4.40086 30.3538 6.31661 26.2391 8.6923C25.5284 9.10257 24.8243 9.52269 24.1354 9.94605C23.6245 8.50315 23.9615 6.85494 25.0887 5.42575C25.9331 4.35524 26.1216 2.99558 25.5808 1.87717C25.014 0.704971 23.7698 0.00316406 22.2506 0H22.2093C16.8474 0 11.6029 2.11562 7.44189 5.95714C3.2757 9.80341 0.725111 14.8951 0.259994 20.2941C-0.299606 26.7963 1.77883 32.978 6.11228 37.7004C10.3692 42.3395 16.4042 45 22.6698 45C26.0431 45 29.2098 44.3828 32.0818 43.1655C34.7079 42.0523 37.04 40.4629 39.0133 38.4412C40.843 36.5665 42.2855 34.4086 43.3009 32.027C44.2672 29.7608 44.7951 27.3593 44.8278 25.0821C44.8753 21.7706 43.9205 18.8844 42.0668 16.7353ZM24.2381 11.9521C25.1684 11.3654 26.1372 10.7808 27.118 10.2146C30.9224 8.01809 34.7108 6.20886 37.7855 5.12016C41.1702 3.92177 42.556 3.99999 42.879 4.15468C42.8511 4.3592 42.5971 5.26913 40.376 7.31452C38.5213 9.0225 35.813 11.0311 32.7499 12.9702C31.7816 13.5834 30.7739 14.1928 29.7548 14.7814C28.3498 15.5922 26.946 16.3505 25.5681 17.0447C25.2932 16.2424 24.9408 15.4637 24.512 14.7209C24.0964 14.001 23.6143 13.3251 23.0754 12.6998C23.4568 12.4498 23.8448 12.1998 24.2381 11.9521ZM23.9757 17.8244C21.4939 19.0013 19.2167 19.8986 17.3981 20.4191C17.3035 19.9644 17.137 19.525 16.9009 19.1156C16.677 18.7276 16.3962 18.3807 16.0716 18.0815C17.433 16.7676 19.3492 15.2453 21.6056 13.688C22.1294 14.2734 22.5938 14.9138 22.9897 15.5996C23.3992 16.3089 23.7288 17.0549 23.9757 17.8244ZM43.0701 25.0569C42.9448 33.8027 35.1096 43.2422 22.6698 43.2422C16.8952 43.2422 11.3324 40.7892 7.40752 36.5121C3.41087 32.1567 1.49459 26.4506 2.01139 20.4449C2.899 10.1408 11.9597 1.75781 22.2093 1.75781H22.2487C23.0896 1.75957 23.7273 2.08195 23.9983 2.64243C24.2475 3.15765 24.1392 3.79116 23.7085 4.33714C22.1245 6.34544 21.7272 8.81543 22.6222 10.898C22.151 11.2016 21.6879 11.5065 21.2405 11.8089C21.2383 11.8103 21.2362 11.8117 21.2342 11.8131C18.4394 13.699 16.0793 15.5748 14.5091 17.1534C13.3182 16.7464 12.0097 16.8651 10.8975 17.507C9.07147 18.5618 6.67381 23.4771 6.21177 24.4517C6.08802 24.7126 6.10041 25.0176 6.24473 25.2677C6.38913 25.5177 6.64709 25.6809 6.93485 25.7043C7.42062 25.7437 8.80006 25.8432 10.3354 25.8432C12.1985 25.8432 14.291 25.6966 15.2921 25.1183C16.3765 24.4924 17.1281 23.4465 17.3885 22.2442C19.5438 21.6784 22.3599 20.5716 25.4099 19.0856C27.1188 18.2539 28.8762 17.318 30.6337 16.3037C31.5252 15.7888 32.4065 15.2581 33.2631 14.7227C33.2683 14.723 33.2733 14.7238 33.2785 14.724C40.6041 14.934 43.1398 20.1994 43.0701 25.0569ZM15.7273 21.4778C15.6711 22.3617 15.18 23.1535 14.4132 23.5961C13.582 24.0762 10.7266 24.1409 8.38214 24.0337C9.461 21.9503 10.9445 19.51 11.7766 19.0294C12.5621 18.5759 13.5119 18.556 14.3177 18.9764C14.7605 19.207 15.1272 19.5588 15.3782 19.994C15.6394 20.4466 15.76 20.9597 15.7273 21.4778Z" fill="black"/>
<path d="M15.6377 5.43506C13.6992 5.43506 12.122 7.01217 12.122 8.95069C12.122 10.8892 13.6992 12.4663 15.6377 12.4663C17.5762 12.4663 19.1533 10.8892 19.1533 8.95069C19.1533 7.01217 17.5762 5.43506 15.6377 5.43506ZM15.6377 10.7085C14.6684 10.7085 13.8799 9.91994 13.8799 8.95069C13.8799 7.98143 14.6684 7.19287 15.6377 7.19287C16.6069 7.19287 17.3955 7.98143 17.3955 8.95069C17.3955 9.91994 16.6069 10.7085 15.6377 10.7085Z" fill="black"/>
<path d="M11.2431 29.0522C9.30462 29.0522 7.72751 30.6294 7.72751 32.5679C7.72751 34.5064 9.30462 36.0835 11.2431 36.0835C13.1817 36.0835 14.7588 34.5064 14.7588 32.5679C14.7588 30.6294 13.1817 29.0522 11.2431 29.0522ZM11.2431 34.3257C10.2739 34.3257 9.48532 33.5371 9.48532 32.5679C9.48532 31.5986 10.2739 30.8101 11.2431 30.8101C12.2124 30.8101 13.0009 31.5986 13.0009 32.5679C13.0009 33.5371 12.2124 34.3257 11.2431 34.3257Z" fill="black"/>
<path d="M20.0322 34.3257C18.0937 34.3257 16.5166 35.9028 16.5166 37.8413C16.5166 39.7798 18.0937 41.3569 20.0322 41.3569C21.9707 41.3569 23.5478 39.7798 23.5478 37.8413C23.5478 35.9028 21.9707 34.3257 20.0322 34.3257ZM20.0322 39.5991C19.0629 39.5991 18.2744 38.8106 18.2744 37.8413C18.2744 36.8721 19.0629 36.0835 20.0322 36.0835C21.0015 36.0835 21.79 36.8721 21.79 37.8413C21.79 38.8106 21.0015 39.5991 20.0322 39.5991Z" fill="black"/>
<path d="M30.5791 32.5679C28.6406 32.5679 27.0635 34.145 27.0635 36.0835C27.0635 38.022 28.6406 39.5991 30.5791 39.5991C32.5176 39.5991 34.0947 38.022 34.0947 36.0835C34.0947 34.145 32.5176 32.5679 30.5791 32.5679ZM30.5791 37.8413C29.6098 37.8413 28.8213 37.0528 28.8213 36.0835C28.8213 35.1142 29.6098 34.3257 30.5791 34.3257C31.5484 34.3257 32.3369 35.1142 32.3369 36.0835C32.3369 37.0528 31.5484 37.8413 30.5791 37.8413Z" fill="black"/>
<path d="M37.6103 23.7788C35.6718 23.7788 34.0947 25.3559 34.0947 27.2944C34.0947 29.233 35.6718 30.8101 37.6103 30.8101C39.5488 30.8101 41.1259 29.233 41.1259 27.2944C41.1259 25.3559 39.5488 23.7788 37.6103 23.7788ZM37.6103 29.0523C36.6411 29.0523 35.8525 28.2637 35.8525 27.2944C35.8525 26.3252 36.6411 25.5366 37.6103 25.5366C38.5796 25.5366 39.3681 26.3252 39.3681 27.2944C39.3681 28.2637 38.5796 29.0523 37.6103 29.0523Z" fill="black"/>
</svg>
