<svg width="46" height="48" viewBox="0 0 46 48" fill="none" xmlns="http://www.w3.org/2000/svg">
<path d="M44.8414 16.7648C44.7028 16.6108 44.5006 16.5221 44.2868 16.5221H39.1598V0.700089C39.1598 0.313453 38.832 0 38.4274 0H22.8026C22.3981 0 22.0701 0.313453 22.0701 0.700089V8.12009H17.9199C17.5156 8.12009 17.1875 8.43476 17.1875 8.82018C17.1875 9.20663 17.5156 9.52027 17.9199 9.52027H22.796C22.7983 9.52027 22.8004 9.52065 22.8027 9.52065C22.8049 9.52065 22.807 9.52036 22.8093 9.52027H25V16.5221H18.417C18.4139 16.5221 18.4109 16.5221 18.4078 16.5221H13.7395L13.7666 9.52027H14.9902C15.3935 9.52027 15.7226 9.20663 15.7226 8.82018C15.7226 8.43476 15.3935 8.12009 14.9902 8.12009H13.0371C12.926 8.12009 12.821 8.14455 12.7266 8.18702C12.4783 8.29838 12.3056 8.53837 12.3044 8.81785L12.2746 16.5221H9.7091L7.2852 6.79189C7.28373 6.78601 7.28159 6.78059 7.28002 6.7748C7.27602 6.76043 7.27192 6.74615 7.26694 6.73215C7.26391 6.72328 7.26039 6.71469 7.25698 6.70601C7.252 6.6935 7.24692 6.68099 7.24116 6.66886C7.23657 6.65896 7.23149 6.64925 7.22651 6.63964C7.22104 6.62937 7.21567 6.6192 7.20971 6.60921C7.20346 6.59847 7.19672 6.58811 7.18979 6.57785C7.18413 6.56944 7.17846 6.56104 7.1725 6.55292C7.16459 6.54219 7.15639 6.53183 7.14799 6.52165C7.14194 6.51428 7.13588 6.507 7.12954 6.4999C7.12065 6.49001 7.11137 6.48039 7.102 6.47097C7.09506 6.46396 7.08803 6.45715 7.0809 6.45052C7.07153 6.44193 7.06186 6.43363 7.05209 6.42551C7.04389 6.41869 7.03559 6.41197 7.027 6.40553C7.01762 6.39844 7.00796 6.39162 6.99819 6.38499C6.98852 6.37837 6.97876 6.37193 6.9687 6.36567C6.95932 6.35988 6.94975 6.35447 6.94008 6.34915C6.92924 6.34318 6.91831 6.3373 6.90717 6.33179C6.89741 6.32703 6.88755 6.32255 6.87768 6.31816C6.86635 6.31312 6.85493 6.30836 6.84321 6.30388C6.83247 6.29977 6.82163 6.29613 6.81059 6.29249C6.79956 6.28894 6.78852 6.2853 6.7772 6.28222C6.7647 6.27867 6.7519 6.27578 6.73911 6.27289C6.72915 6.27065 6.71919 6.26841 6.70913 6.26663C6.69448 6.26402 6.67964 6.26197 6.6647 6.26019C6.656 6.25917 6.64731 6.25804 6.63852 6.2573C6.62231 6.2559 6.60601 6.25524 6.5897 6.25496C6.58394 6.25487 6.57837 6.25412 6.5727 6.25412H1.31835C0.913864 6.25412 0.585938 6.56758 0.585938 6.95421C0.585938 7.34085 0.913864 7.6543 1.31835 7.6543H5.99419L13.1984 36.5738C12.0833 37.1745 11.328 38.3167 11.328 39.625C11.328 41.4827 12.85 43.0063 14.7644 43.1182C14.4444 43.5916 14.2578 44.1549 14.2578 44.7594C14.2578 46.4321 15.6815 47.7931 17.4316 47.7931C19.1816 47.7931 20.6053 46.4322 20.6053 44.7594C20.6053 44.158 20.4205 43.5974 20.1035 43.1255H33.3141C32.9971 43.5975 32.8122 44.158 32.8122 44.7594C32.8122 46.4321 34.236 47.7931 35.986 47.7931C37.7361 47.7931 39.1598 46.4322 39.1598 44.7594C39.1598 44.158 38.975 43.5974 38.658 43.1255H41.3569C41.7615 43.1255 42.0893 42.812 42.0893 42.4254C42.0893 42.0387 41.7615 41.7253 41.3569 41.7253H14.9901C14.9897 41.7253 14.9893 41.7254 14.9888 41.7254C13.7778 41.7247 12.7929 40.7828 12.7929 39.6251C12.7929 38.4671 13.7785 37.5249 14.99 37.5249C15.0767 37.5249 15.1594 37.5098 15.2366 37.4834L41.3835 36.5907C41.7351 36.5786 42.029 36.3284 42.0808 35.9952L42.5134 33.2415C42.5427 33.0567 42.4939 32.8719 42.3777 32.7216C42.2615 32.5713 42.0906 32.4733 41.8972 32.4462C41.8611 32.4406 41.824 32.4378 41.7878 32.4378C41.4284 32.4378 41.1179 32.6945 41.0642 33.0343L40.7224 35.213L35.8 35.3809L36.4301 27.257H41.9717L41.4998 30.2647C41.4705 30.4496 41.5182 30.6344 41.6345 30.7847C41.7507 30.935 41.9216 31.033 42.115 31.061C42.1511 31.0666 42.1882 31.0684 42.2244 31.0684C42.5837 31.0684 42.8943 30.8127 42.948 30.4729L45.0114 17.3263C45.0427 17.1242 44.9811 16.9197 44.8414 16.7648ZM35.986 43.1255C36.9283 43.1255 37.695 43.8583 37.695 44.759C37.695 45.6598 36.9284 46.3925 35.986 46.3925C35.0438 46.3925 34.2771 45.6598 34.2771 44.759C34.2771 43.8583 35.0438 43.1255 35.986 43.1255ZM17.4315 43.1255C18.3738 43.1255 19.1404 43.8583 19.1404 44.759C19.1405 45.6598 18.3739 46.3925 17.4315 46.3925C16.4892 46.3925 15.7225 45.6598 15.7225 44.759C15.7225 43.8583 16.4891 43.1255 17.4315 43.1255ZM10.0579 17.9223H17.7427L18.5422 25.8564H12.0345L10.0579 17.9223ZM14.5873 36.1041L12.3832 27.2566H18.6832L19.5577 35.9345L14.5873 36.1041ZM19.2143 17.9223H26.9527V25.8564H20.0137L19.2143 17.9223ZM26.9528 35.6823L21.0242 35.8846L20.1549 27.2566H26.9528V35.6823ZM34.3271 35.4307L28.4175 35.6324V27.2566H34.9611L34.3271 35.4307ZM35.0697 25.8564H28.4175V17.9223H35.6852L35.0697 25.8564ZM27.689 16.5221C27.6877 16.5221 27.6865 16.5219 27.6852 16.5219C27.684 16.5219 27.6828 16.5221 27.6814 16.5221H26.4647V8.82046C26.4646 8.82046 26.4646 8.82037 26.4646 8.82028V8.82018C26.4646 8.78312 26.4607 8.747 26.4549 8.71144C26.4198 8.49795 26.2844 8.31668 26.0955 8.21325C25.9883 8.15435 25.8645 8.12009 25.7321 8.12009H23.5349V1.40018H37.6949V16.5221H27.689ZM42.1913 25.8564H36.5387L37.1541 17.9223H43.4362L42.1913 25.8564Z" fill="black"/>
</svg>
