<svg width="51" height="51" viewBox="0 0 51 51" fill="none" xmlns="http://www.w3.org/2000/svg">
<g clip-path="url(#clip0)">
<path d="M20.5124 12.0351H20.001C19.728 11.2608 19.1136 10.6467 18.3392 10.3737V9.86191C18.3392 9.36436 17.9358 8.96094 17.4383 8.96094C16.9407 8.96094 16.5373 9.36436 16.5373 9.86191V10.3738C15.7632 10.6468 15.149 11.2609 14.876 12.0351H14.3641C13.8666 12.0351 13.4631 12.4385 13.4631 12.9361C13.4631 13.4336 13.8666 13.837 14.3641 13.837H14.8757C15.1486 14.6114 15.7628 15.2257 16.5372 15.4989V16.0102C16.5372 16.5078 16.9406 16.9112 17.4382 16.9112C17.9357 16.9112 18.3391 16.5078 18.3391 16.0102V15.499C19.1136 15.226 19.7281 14.6115 20.001 13.837H20.5122C21.0098 13.837 21.4132 13.4336 21.4132 12.9361C21.4132 12.4385 21.01 12.0351 20.5124 12.0351ZM17.4384 13.8513C16.9352 13.8513 16.5258 13.443 16.5237 12.9403C16.5237 12.9389 16.5239 12.9376 16.5239 12.9362C16.5239 12.9349 16.5237 12.9335 16.5237 12.9323C16.526 12.4308 16.9335 12.0236 17.4351 12.0218C17.4362 12.0218 17.4372 12.0219 17.4382 12.0219C17.4392 12.0219 17.4403 12.0218 17.4414 12.0218C17.9444 12.0235 18.3533 12.4331 18.3533 12.9365C18.3533 13.4409 17.943 13.8513 17.4384 13.8513Z" fill="black"/>
<path d="M36.6356 12.0354H36.1242C35.8513 11.2611 35.2369 10.647 34.4627 10.3739V9.86215C34.4627 9.3646 34.0594 8.96118 33.5618 8.96118C33.0641 8.96118 32.6608 9.3646 32.6608 9.86215V10.3741C31.8867 10.6472 31.2725 11.2613 30.9994 12.0354H30.4876C29.99 12.0354 29.5866 12.4389 29.5866 12.9364C29.5866 13.434 29.99 13.8374 30.4876 13.8374H30.9991C31.272 14.6117 31.8864 15.226 32.6606 15.4993V16.0106C32.6606 16.5081 33.0639 16.9115 33.5616 16.9115C34.0592 16.9115 34.4625 16.5081 34.4625 16.0106V15.4994C35.237 15.2263 35.8515 14.6118 36.1244 13.8374H36.6356C37.1332 13.8374 37.5366 13.434 37.5366 12.9364C37.5366 12.4389 37.1333 12.0354 36.6356 12.0354ZM33.562 13.8514C33.0589 13.8514 32.6497 13.4434 32.6473 12.9411C32.6473 12.9395 32.6475 12.938 32.6475 12.9363C32.6475 12.9347 32.6473 12.9333 32.6473 12.9318C32.65 12.4308 33.0574 12.0238 33.5588 12.022C33.5599 12.022 33.5609 12.0221 33.5619 12.0221C33.5628 12.0221 33.564 12.022 33.5652 12.022C34.0682 12.0237 34.4771 12.4333 34.4771 12.9366C34.4768 13.441 34.0664 13.8514 33.562 13.8514Z" fill="black"/>
<path d="M20.5122 28.1586H20.0008C19.7278 27.3844 19.1134 26.7703 18.339 26.4972V25.9854C18.339 25.4879 17.9356 25.0845 17.438 25.0845C16.9405 25.0845 16.5371 25.4879 16.5371 25.9854V26.4973C15.763 26.7704 15.1488 27.3845 14.8758 28.1586H14.3639C13.8663 28.1586 13.4629 28.562 13.4629 29.0596C13.4629 29.5571 13.8663 29.9606 14.3639 29.9606H14.8755C15.1484 30.7349 15.7626 31.3492 16.537 31.6225V32.1338C16.5371 32.6313 16.9405 33.0347 17.438 33.0347C17.9356 33.0347 18.339 32.6313 18.339 32.1338V31.6226C19.1135 31.3495 19.728 30.735 20.0009 29.9606H20.5121C21.0096 29.9606 21.4131 29.5571 21.4131 29.0596C21.4131 28.562 21.0098 28.1586 20.5122 28.1586ZM17.4383 29.9747C16.9352 29.9747 16.5258 29.5664 16.5237 29.0638C16.5237 29.0624 16.5239 29.061 16.5239 29.0596C16.5239 29.0583 16.5237 29.0569 16.5237 29.0557C16.526 28.5543 16.9335 28.1471 17.4351 28.1453C17.4361 28.1453 17.4371 28.1454 17.4381 28.1454C17.4391 28.1454 17.4403 28.1453 17.4414 28.1453C17.9444 28.147 18.3533 28.5566 18.3533 29.0599C18.3533 29.5644 17.943 29.9747 17.4383 29.9747Z" fill="black"/>
<path d="M36.6357 28.1586H36.1243C35.8512 27.3844 35.2369 26.7703 34.4626 26.4972V25.9854C34.4626 25.4879 34.0592 25.0845 33.5616 25.0845C33.0639 25.0845 32.6606 25.4879 32.6606 25.9854V26.4974C31.8865 26.7705 31.2724 27.3846 30.9992 28.1587H30.4874C29.9898 28.1587 29.5865 28.5621 29.5865 29.0597C29.5865 29.5572 29.9898 29.9607 30.4874 29.9607H30.9989C31.2719 30.735 31.8862 31.3493 32.6604 31.6226V32.1339C32.6606 32.6313 33.064 33.0347 33.5616 33.0347C34.0592 33.0347 34.4626 32.6313 34.4626 32.1338V31.6226C35.237 31.3495 35.8515 30.735 36.1244 29.9606H36.6356C37.1333 29.9606 37.5366 29.5571 37.5366 29.0596C37.5366 28.562 37.1335 28.1586 36.6357 28.1586ZM33.562 29.9747C33.059 29.9747 32.6498 29.5667 32.6474 29.0644C32.6474 29.0628 32.6476 29.0613 32.6476 29.0596C32.6476 29.058 32.6474 29.0566 32.6474 29.0551C32.6501 28.5541 33.0575 28.1471 33.5588 28.1453C33.5599 28.1453 33.5609 28.1454 33.5619 28.1454C33.5629 28.1454 33.5641 28.1453 33.5653 28.1453C34.0682 28.147 34.4771 28.5566 34.4771 29.0599C34.4768 29.5644 34.0664 29.9747 33.562 29.9747Z" fill="black"/>
<path d="M49.4249 9.69251C48.9111 7.41643 47.5671 5.50134 45.8753 4.4913C46.2787 4.00102 46.4981 3.39171 46.4981 2.74863C46.4981 2.0145 46.2123 1.32431 45.6932 0.805144C45.6932 0.805144 45.6932 0.805144 45.6931 0.805144C45.174 0.28588 44.4838 0 43.7498 0C43.0157 0 42.3255 0.28588 41.8062 0.804945C41.2871 1.32411 41.0011 2.0143 41.0011 2.74853C41.0011 2.78797 41.0052 2.82662 41.0068 2.86567C40.2031 2.72024 39.3985 2.58437 38.6006 2.46215C38.1092 2.38684 37.649 2.72472 37.5737 3.21659C37.4985 3.70836 37.8363 4.16826 38.3282 4.24347C39.4377 4.4132 40.5611 4.60754 41.6756 4.8225C41.7578 5.24813 41.8331 5.65523 41.9035 6.05258C41.1506 7.60509 40.9312 9.56919 41.3692 11.5105C41.4931 12.0592 41.6659 12.5951 41.8825 13.1031C41.949 13.2587 42.0578 13.3924 42.1966 13.489C42.4369 13.6563 42.6835 13.8029 42.9347 13.9289C43.5844 21.6447 43.1631 29.4584 41.6757 37.1737C30.9389 39.2435 20.0612 39.2435 9.32434 37.1737C7.83687 29.4588 7.41572 21.6451 8.06537 13.9289C8.31659 13.8028 8.56322 13.6562 8.80348 13.489C8.94234 13.3924 9.05121 13.2586 9.11765 13.103C9.3344 12.595 9.50712 12.0592 9.63094 11.5105C10.069 9.56919 9.84958 7.60509 9.09673 6.05258C9.16726 5.65364 9.24256 5.24654 9.32434 4.8225C17.7435 3.19956 26.273 2.84355 34.6856 3.76524C35.1801 3.81963 35.6251 3.46243 35.6792 2.96787C35.7334 2.47331 35.3764 2.02835 34.8817 1.97416C26.6256 1.06961 18.2607 1.36963 9.99202 2.86497C10.0233 2.12278 9.75924 1.37053 9.19375 0.805144C8.12205 -0.266555 6.37829 -0.266555 5.30669 0.805144C4.29963 1.8122 4.23937 3.41252 5.1249 4.4911C3.43283 5.50104 2.0888 7.41623 1.57511 9.69261C1.4514 10.2409 1.37719 10.7989 1.35468 11.3512C1.3477 11.5202 1.38854 11.6878 1.47242 11.8347C2.23572 13.1714 3.39976 14.0754 4.75017 14.3802C5.08535 14.4559 5.42582 14.4933 5.76788 14.4933C5.9158 14.4933 6.06392 14.4855 6.21204 14.4716C5.65612 21.7888 6.0433 29.186 7.36601 36.5023C7.32757 36.5007 7.28912 36.4994 7.25037 36.4994C5.73481 36.4994 4.50184 37.7324 4.50184 39.248C4.50184 40.0585 4.85466 40.7877 5.41446 41.2914C4.79888 41.8793 4.27672 42.6208 3.88785 43.4769C3.68205 43.9299 3.88257 44.464 4.33559 44.6698C4.78832 44.8756 5.32272 44.6752 5.52852 44.2221C5.94538 43.3044 6.54762 42.574 7.25107 42.1234C8.65805 43.0202 9.57745 44.965 9.57745 47.1265C9.57745 47.4903 9.55135 47.8524 9.49985 48.2069C8.99931 48.6949 8.24238 49.1982 7.25047 49.1982C6.25856 49.1982 5.50162 48.6949 5.00108 48.2069C4.94959 47.8525 4.92349 47.4903 4.92349 47.1265C4.92349 46.8774 4.93574 46.6271 4.95985 46.3828C5.00875 45.8876 4.64707 45.4465 4.15181 45.3977C3.65616 45.3486 3.21548 45.7104 3.16648 46.2057C3.13659 46.5088 3.12145 46.8186 3.12145 47.1266C3.12145 47.6889 3.17195 48.2496 3.27166 48.7931C3.30204 48.9594 3.37884 49.1139 3.4931 49.2387C4.53182 50.3746 5.86639 51.0002 7.25057 51.0002C8.63474 51.0002 9.96921 50.3747 11.008 49.2387C11.1223 49.1139 11.1989 48.9594 11.2295 48.7931C11.3291 48.2496 11.3797 47.689 11.3797 47.1266C11.3797 44.8055 10.4996 42.6519 9.08478 41.2929C9.64568 40.7892 9.9993 40.0591 9.9993 39.2479C9.9993 39.2086 9.998 39.1697 9.99631 39.1307C15.1445 40.0614 20.3223 40.5284 25.5003 40.5284C30.6782 40.5284 35.8561 40.0615 41.0044 39.1307C41.0027 39.1697 41.0014 39.2086 41.0014 39.2479C41.0014 40.0592 41.355 40.7892 41.9159 41.2929C40.501 42.6518 39.621 44.8054 39.621 47.1266C39.621 47.6888 39.6715 48.2494 39.771 48.7931C39.8014 48.9594 39.8782 49.1139 39.9924 49.2388C41.0314 50.3748 42.3658 51.0003 43.7501 51.0003C45.1343 51.0003 46.4688 50.3748 47.5076 49.2388C47.6218 49.114 47.6986 48.9595 47.729 48.7931C47.8286 48.2495 47.879 47.6888 47.879 47.1266C47.879 44.8053 46.999 42.6517 45.5841 41.2929C46.145 40.7892 46.4985 40.0593 46.4985 39.2479C46.4985 37.7323 45.2656 36.4993 43.75 36.4993C43.7112 36.4993 43.6728 36.5006 43.6344 36.5022C44.9571 29.1856 45.3444 21.7885 44.7884 14.4717C44.9365 14.4856 45.0846 14.4933 45.2324 14.4933C45.5744 14.4933 45.9151 14.4559 46.2502 14.3802C47.6004 14.0754 48.7646 13.1715 49.5277 11.8347C49.6115 11.6878 49.6524 11.5203 49.6455 11.3513C49.6228 10.7994 49.5487 10.2413 49.4249 9.69251ZM6.58109 2.07915C6.76557 1.89467 7.00802 1.80234 7.25047 1.80234C7.49292 1.80234 7.73527 1.89457 7.91985 2.07915C8.2889 2.4483 8.2889 3.04885 7.91985 3.418C7.74095 3.5969 7.50338 3.69522 7.25047 3.69522C6.99756 3.69522 6.75999 3.5967 6.58109 3.418C6.21204 3.04885 6.21204 2.4483 6.58109 2.07915ZM6.9375 12.4635C6.91817 12.4697 6.89954 12.4774 6.88082 12.4849C6.38157 12.6722 5.79079 12.7678 5.14711 12.6225C4.1795 12.4041 3.55206 11.7466 3.17096 11.1604C3.19875 10.8033 3.25304 10.4441 3.33312 10.0895C3.80906 7.98062 5.13456 6.28566 6.70471 5.72098C6.95333 5.97159 7.16829 6.26504 7.35147 6.58887C7.36382 6.61388 7.37737 6.63828 7.39211 6.66199C8.04246 7.86258 8.24109 9.48462 7.87323 11.1139C7.79314 11.4689 7.68795 11.8166 7.55966 12.1508C7.37528 12.264 7.1665 12.3731 6.9375 12.4635ZM7.25047 40.1944C6.72851 40.1944 6.30388 39.7697 6.30388 39.2478C6.30388 38.7258 6.72851 38.3012 7.25047 38.3012C7.77242 38.3012 8.19706 38.7258 8.19706 39.2478C8.19706 39.7697 7.77242 40.1944 7.25047 40.1944ZM42.803 2.74863C42.803 2.49572 42.9014 2.25805 43.0802 2.07915C43.2591 1.90025 43.4968 1.80194 43.7497 1.80194C44.0024 1.80194 44.2402 1.90045 44.419 2.07915C44.419 2.07915 44.419 2.07915 44.4191 2.07915C44.5979 2.25805 44.6964 2.49562 44.6964 2.74853C44.6964 3.00144 44.598 3.239 44.419 3.418C44.2403 3.5967 44.0025 3.69522 43.7497 3.69522C43.4968 3.69522 43.2591 3.5967 43.0802 3.418C42.9015 3.2392 42.803 3.00154 42.803 2.74863ZM46.0768 47.1266C46.0768 47.4903 46.0507 47.8525 45.9992 48.207C45.4985 48.695 44.7417 49.1983 43.7498 49.1983C42.7578 49.1983 42.001 48.695 41.5002 48.207C41.4485 47.8525 41.4226 47.4903 41.4226 47.1266C41.4226 44.9647 42.3424 43.0195 43.7498 42.123C45.157 43.0195 46.0768 44.9646 46.0768 47.1266ZM43.7498 38.3012C44.2718 38.3012 44.6964 38.7258 44.6964 39.2478C44.6964 39.7697 44.2718 40.1944 43.7498 40.1944C43.2278 40.1944 42.8031 39.7697 42.8031 39.2478C42.803 38.7258 43.2277 38.3012 43.7498 38.3012ZM45.8533 12.6224C45.2196 12.7654 44.637 12.675 44.1427 12.4931C44.1165 12.482 44.0898 12.472 44.0624 12.4633C43.8336 12.3729 43.6249 12.2638 43.4406 12.1507C43.3124 11.8165 43.2072 11.4688 43.1273 11.1139C42.7595 9.48472 42.9577 7.86298 43.608 6.66239C43.623 6.63808 43.6367 6.61328 43.6494 6.58768C43.8325 6.26415 44.0471 5.9711 44.2956 5.72068C45.8656 6.28536 47.1911 7.98032 47.6672 10.0892C47.7472 10.4441 47.8015 10.8032 47.8293 11.1601C47.4483 11.7465 46.8208 12.4041 45.8533 12.6224Z" fill="black"/>
</g>
<defs>
<clipPath id="clip0">
<rect width="51" height="51" fill="white"/>
</clipPath>
</defs>
</svg>
