<svg width="48" height="48" viewBox="0 0 48 48" fill="none" xmlns="http://www.w3.org/2000/svg">
<path d="M45.1875 1.875C43.9655 1.875 42.9232 2.65869 42.5361 3.75H35.625C35.625 1.68237 33.9426 0 31.875 0C29.8033 0 28.125 1.67798 28.125 3.75H24.375C24.375 1.68237 22.6926 0 20.625 0C18.5533 0 16.875 1.67798 16.875 3.75H13.125C13.125 1.68237 11.4426 0 9.375 0C7.30334 0 5.625 1.67798 5.625 3.75H0.9375C0.419678 3.75 0 4.16968 0 4.6875C0 5.20532 0.419678 5.6239 0.9375 5.6239H5.625C5.625 6.65808 4.78381 7.5 3.75 7.5H0.9375C0.419678 7.5 0 7.91968 0 8.4375V22.125C0 22.6428 0.419678 23.0625 0.9375 23.0625C1.45532 23.0625 1.875 22.6428 1.875 22.125V9.375H3.75C5.81763 9.375 7.5 7.69263 7.5 5.625V3.75C7.5 2.71436 8.33936 1.875 9.375 1.875C10.4088 1.875 11.25 2.71619 11.25 3.75V5.625C11.25 7.69666 12.928 9.375 15 9.375C17.0676 9.375 18.75 7.69263 18.75 5.625V3.75C18.75 2.71436 19.5894 1.875 20.625 1.875C21.6588 1.875 22.5 2.71619 22.5 3.75V5.625C22.5 7.69666 24.178 9.375 26.25 9.375C28.3176 9.375 30 7.69263 30 5.625V3.75C30 2.71436 30.8394 1.875 31.875 1.875C32.9088 1.875 33.75 2.71619 33.75 3.75V44.25C33.75 45.2856 32.9106 46.125 31.875 46.125C30.8412 46.125 30 45.2838 30 44.25C30 41.5096 30 23.5038 30 19.6875C30 19.1697 29.5803 18.75 29.0625 18.75C28.5447 18.75 28.125 19.1697 28.125 19.6875V39.1271C27.561 38.8 26.9191 38.625 26.25 38.625C25.5674 38.625 24.9269 38.8092 24.375 39.1296V12.1875C24.375 11.6697 23.9553 11.25 23.4375 11.25C22.9197 11.25 22.5 11.6697 22.5 12.1875V44.25C22.5 45.2856 21.6606 46.125 20.625 46.125C19.5912 46.125 18.75 45.2838 18.75 44.25C18.75 41.5096 18.75 23.5038 18.75 19.6875C18.75 19.1697 18.3303 18.75 17.8125 18.75C17.2947 18.75 16.875 19.1697 16.875 19.6875V39.1271C16.311 38.8 15.6691 38.625 15 38.625C14.3174 38.625 13.6769 38.8092 13.125 39.1296V12.1875C13.125 11.6697 12.7053 11.25 12.1875 11.25C11.6697 11.25 11.25 11.6697 11.25 12.1875V44.25C11.25 45.2856 10.4106 46.125 9.375 46.125C8.34119 46.125 7.5 45.2838 7.5 44.25C7.5 41.5096 7.5 23.5038 7.5 19.6875C7.5 19.1697 7.08032 18.75 6.5625 18.75C6.04468 18.75 5.625 19.1697 5.625 19.6875V39.1296C5.07312 38.8092 4.43262 38.625 3.75 38.625H1.875V29.625C1.875 29.1072 1.45532 28.6875 0.9375 28.6875C0.419678 28.6875 0 29.1072 0 29.625V39.5625C0 40.0803 0.419678 40.5 0.9375 40.5H3.75C4.78381 40.5 5.625 41.3412 5.625 42.375V44.25C5.625 46.3176 7.30737 48 9.375 48C11.4467 48 13.125 46.322 13.125 44.25V42.375C13.125 41.3412 13.9662 40.5 15 40.5C16.0353 40.5 16.875 41.3394 16.875 42.375V44.25C16.875 46.3176 18.5574 48 20.625 48C22.6967 48 24.375 46.322 24.375 44.25V42.375C24.375 41.3412 25.2162 40.5 26.25 40.5C27.2853 40.5 28.125 41.3394 28.125 42.375V44.25C28.125 46.3176 29.8074 48 31.875 48C33.9467 48 35.625 46.322 35.625 44.25V5.625H42.5361C42.9232 6.71631 43.9655 7.5 45.1875 7.5C46.7384 7.5 48 6.2384 48 4.6875C48 3.1366 46.7384 1.875 45.1875 1.875ZM15 7.5C13.9647 7.5 13.125 6.65955 13.125 5.6239H16.875C16.875 6.65808 16.0338 7.5 15 7.5ZM26.25 7.5C25.2147 7.5 24.375 6.65955 24.375 5.6239H28.125C28.125 6.65808 27.2838 7.5 26.25 7.5ZM45.1875 5.625C44.6704 5.625 44.25 5.20459 44.25 4.6875C44.25 4.17041 44.6704 3.75 45.1875 3.75C45.7046 3.75 46.125 4.17041 46.125 4.6875C46.125 5.20459 45.7046 5.625 45.1875 5.625Z" fill="#C1955B"/>
<path d="M1.875 25.875C1.875 26.3928 1.45532 26.8125 0.9375 26.8125C0.419678 26.8125 0 26.3928 0 25.875C0 25.3572 0.419678 24.9375 0.9375 24.9375C1.45532 24.9375 1.875 25.3572 1.875 25.875Z" fill="#C1955B"/>
</svg>
