<svg width="53" height="53" viewBox="0 0 53 53" fill="none" xmlns="http://www.w3.org/2000/svg">
<g clip-path="url(#clip0)">
<path d="M42.7923 15.9933L27.724 7.64461C26.9573 7.21988 26.0417 7.21988 25.2749 7.64461C25.2749 7.64471 25.2749 7.64471 25.2749 7.64471L10.2065 15.9932C9.40324 16.4383 8.9043 17.2852 8.9043 18.2035V34.7961C8.9043 35.7144 9.40324 36.5613 10.2065 37.0063L25.2749 45.3551C25.6583 45.5676 26.0789 45.6737 26.4994 45.6737C26.9199 45.6737 27.3406 45.5675 27.724 45.3551L42.7923 37.0065C43.5956 36.5613 44.0946 35.7145 44.0946 34.7962V18.2036C44.0947 17.2854 43.5956 16.4385 42.7923 15.9933ZM26.2781 9.4553C26.4167 9.37828 26.5824 9.37849 26.7208 9.4553L32.7377 12.789L18.2259 20.8294L12.0679 17.3285L26.2781 9.4553ZM25.4646 43.0935L11.2099 35.1957C11.0646 35.1153 10.9743 34.9622 10.9743 34.7962V19.0877L17.6994 22.9111C17.701 22.912 17.7027 22.9129 17.7043 22.9139L25.4646 27.3257V43.0935V43.0935ZM20.3341 22.0279L34.8734 13.9723L41.1261 17.4364L26.5062 25.5367L20.3341 22.0279ZM42.0245 34.7961C42.0246 34.9622 41.9343 35.1153 41.789 35.1959L27.5343 43.0936V27.3335L42.0245 19.3051V34.7961V34.7961Z" fill="#C1955B"/>
<path d="M19.2356 26.3424L13.7511 23.3219C13.4306 23.1456 13.0406 23.1513 12.7253 23.3374C12.4101 23.5237 12.2168 23.8625 12.2168 24.2285V28.604C12.2168 28.9812 12.4221 29.3286 12.7525 29.5107L18.2369 32.5312C18.3925 32.6168 18.5645 32.6595 18.7362 32.6595C18.9185 32.6595 19.1006 32.6114 19.2627 32.5155C19.5779 32.3294 19.7711 31.9906 19.7711 31.6246V27.2491C19.7712 26.8718 19.5661 26.5244 19.2356 26.3424ZM17.7012 29.8729L14.2869 27.9925V25.9803L17.7012 27.8608V29.8729Z" fill="#C1955B"/>
<path d="M23.553 37.2852L20.8109 35.7749C20.3103 35.4992 19.6807 35.6816 19.405 36.1823C19.1292 36.683 19.3116 37.3123 19.8123 37.5882L22.5544 39.0985C22.7128 39.1858 22.884 39.2271 23.0527 39.2271C23.4177 39.2271 23.7716 39.0335 23.9604 38.6912C24.2361 38.1905 24.0538 37.561 23.553 37.2852Z" fill="#C1955B"/>
<path d="M48.1612 11.2358L50.0708 9.32613C50.3668 9.03007 50.4553 8.58496 50.2953 8.19822C50.135 7.81159 49.7577 7.55933 49.339 7.55933H44.1984C43.6269 7.55933 43.1634 8.02276 43.1634 8.59438V13.735C43.1634 14.1536 43.4156 14.531 43.8022 14.6912C43.9303 14.7442 44.0649 14.77 44.1981 14.77C44.4675 14.77 44.7321 14.6648 44.9302 14.4668L46.6739 12.7231C53.2304 22.3092 52.0579 35.4857 43.7715 43.7719C36.6445 50.8989 26.0609 52.9233 16.8088 48.9291C16.284 48.7026 15.6748 48.9442 15.4483 49.469C15.2217 49.9938 15.4635 50.6029 15.9883 50.8295C19.3239 52.2694 22.8827 53 26.4769 53C28.0746 53 29.68 52.8555 31.2746 52.5648C36.5804 51.5975 41.4077 49.0632 45.2352 45.2357C49.7658 40.7051 52.5 34.6934 52.9345 28.3083C53.3486 22.2193 51.6561 16.1854 48.1612 11.2358ZM45.2335 11.236V9.62922H46.8402L45.2335 11.236Z" fill="#C1955B"/>
<path d="M13.8306 47.3903L13.7903 47.3657C13.3021 47.0683 12.6654 47.223 12.3679 47.7114C12.0707 48.1996 12.2254 48.8363 12.7137 49.1337L12.7541 49.1583C12.9222 49.2607 13.108 49.3095 13.2913 49.3095C13.6406 49.3095 13.9813 49.1328 14.1764 48.8127C14.4735 48.3244 14.3188 47.6877 13.8306 47.3903Z" fill="#C1955B"/>
<path d="M40.4277 3.95284L40.3765 3.92116C39.8897 3.62149 39.2522 3.77324 38.9525 4.26018C38.6528 4.74711 38.8048 5.38456 39.2916 5.68424L39.3429 5.71591C39.5121 5.82005 39.6993 5.86953 39.8843 5.86953C40.2318 5.86953 40.5713 5.69459 40.7667 5.3769C41.0663 4.88986 40.9145 4.25241 40.4277 3.95284Z" fill="#C1955B"/>
<path d="M36.9536 2.14545C32.1407 0.0814597 26.8641 -0.507957 21.6946 0.440658C16.4009 1.41225 11.5841 3.94455 7.76448 7.76417C3.23382 12.2948 0.499559 18.3065 0.0652085 24.6916C-0.34875 30.7804 1.34383 36.8144 4.83872 41.764L2.92907 43.6737C2.63312 43.9697 2.54461 44.4148 2.70464 44.8016C2.86489 45.1882 3.2422 45.4405 3.66092 45.4405H8.8015C9.37301 45.4405 9.83655 44.977 9.83655 44.4054V39.2648C9.83665 38.8462 9.58438 38.4688 9.19775 38.3086C8.81092 38.1485 8.3657 38.237 8.06975 38.533L6.32593 40.2768C-0.230742 30.6907 0.941881 17.5142 9.22819 9.22788C16.3368 2.11916 26.8993 0.0857035 36.1376 4.04786C36.6629 4.27321 37.2714 4.02985 37.4968 3.50461C37.7222 2.97937 37.479 2.37081 36.9536 2.14545ZM7.76634 41.7638V43.3706H6.15968L7.76634 41.7638Z" fill="#C1955B"/>
</g>
<defs>
<clipPath id="clip0">
<rect width="53" height="53" fill="white"/>
</clipPath>
</defs>
</svg>
